%TF.GenerationSoftware,KiCad,Pcbnew,6.0.0*%
%TF.CreationDate,2022-01-14T21:47:45+01:00*%
%TF.ProjectId,cowmotics-aquarea,636f776d-6f74-4696-9373-2d6171756172,1*%
%TF.SameCoordinates,Original*%
%TF.FileFunction,Soldermask,Top*%
%TF.FilePolarity,Negative*%
%FSLAX46Y46*%
G04 Gerber Fmt 4.6, Leading zero omitted, Abs format (unit mm)*
G04 Created by KiCad (PCBNEW 6.0.0) date 2022-01-14 21:47:45*
%MOMM*%
%LPD*%
G01*
G04 APERTURE LIST*
G04 Aperture macros list*
%AMRoundRect*
0 Rectangle with rounded corners*
0 $1 Rounding radius*
0 $2 $3 $4 $5 $6 $7 $8 $9 X,Y pos of 4 corners*
0 Add a 4 corners polygon primitive as box body*
4,1,4,$2,$3,$4,$5,$6,$7,$8,$9,$2,$3,0*
0 Add four circle primitives for the rounded corners*
1,1,$1+$1,$2,$3*
1,1,$1+$1,$4,$5*
1,1,$1+$1,$6,$7*
1,1,$1+$1,$8,$9*
0 Add four rect primitives between the rounded corners*
20,1,$1+$1,$2,$3,$4,$5,0*
20,1,$1+$1,$4,$5,$6,$7,0*
20,1,$1+$1,$6,$7,$8,$9,0*
20,1,$1+$1,$8,$9,$2,$3,0*%
%AMRotRect*
0 Rectangle, with rotation*
0 The origin of the aperture is its center*
0 $1 length*
0 $2 width*
0 $3 Rotation angle, in degrees counterclockwise*
0 Add horizontal line*
21,1,$1,$2,0,0,$3*%
G04 Aperture macros list end*
%ADD10RoundRect,0.050000X-0.750000X-0.600000X0.750000X-0.600000X0.750000X0.600000X-0.750000X0.600000X0*%
%ADD11R,0.635000X1.143000*%
%ADD12C,1.198880*%
%ADD13RoundRect,0.050000X0.317500X0.571500X-0.317500X0.571500X-0.317500X-0.571500X0.317500X-0.571500X0*%
%ADD14R,1.143000X0.635000*%
%ADD15R,2.000000X2.000000*%
%ADD16C,2.000000*%
%ADD17C,0.700000*%
%ADD18R,1.050000X1.400000*%
%ADD19R,0.500000X1.100000*%
%ADD20RoundRect,0.050000X-0.317500X-0.571500X0.317500X-0.571500X0.317500X0.571500X-0.317500X0.571500X0*%
%ADD21R,1.000760X0.701040*%
%ADD22RoundRect,0.050000X0.571500X-0.317500X0.571500X0.317500X-0.571500X0.317500X-0.571500X-0.317500X0*%
%ADD23R,1.500000X2.000000*%
%ADD24R,0.900000X0.279400*%
%ADD25R,0.279400X0.900000*%
%ADD26R,2.600000X2.600000*%
%ADD27RotRect,1.300000X1.300000X315.000000*%
%ADD28C,2.199640*%
%ADD29R,0.914400X0.914400*%
%ADD30R,0.550000X1.600000*%
%ADD31R,2.500000X2.000000*%
%ADD32R,2.000000X2.500000*%
%ADD33R,0.889000X1.397000*%
%ADD34RoundRect,0.050000X-0.571500X0.317500X-0.571500X-0.317500X0.571500X-0.317500X0.571500X0.317500X0*%
%ADD35RoundRect,0.025000X-0.375000X0.125000X-0.375000X-0.125000X0.375000X-0.125000X0.375000X0.125000X0*%
%ADD36RoundRect,0.025000X0.125000X0.375000X-0.125000X0.375000X-0.125000X-0.375000X0.125000X-0.375000X0*%
%ADD37RoundRect,0.025000X0.375000X-0.125000X0.375000X0.125000X-0.375000X0.125000X-0.375000X-0.125000X0*%
%ADD38RoundRect,0.025000X-0.125000X-0.375000X0.125000X-0.375000X0.125000X0.375000X-0.125000X0.375000X0*%
%ADD39RoundRect,0.025000X0.750000X0.750000X-0.750000X0.750000X-0.750000X-0.750000X0.750000X-0.750000X0*%
%ADD40R,0.701040X1.000760*%
%ADD41R,2.000000X1.198880*%
%ADD42R,1.899920X0.800100*%
%ADD43C,1.300000*%
%ADD44C,1.524000*%
%ADD45O,3.000000X1.600000*%
G04 APERTURE END LIST*
D10*
%TO.C,X2*%
X167750000Y-125250000D03*
X170250000Y-125250000D03*
X170250000Y-123250000D03*
X167750000Y-123250000D03*
%TD*%
D11*
%TO.C,C22*%
X171988000Y-110750000D03*
X173512000Y-110750000D03*
%TD*%
D12*
%TO.C,TP3*%
X157960000Y-125250000D03*
%TD*%
D11*
%TO.C,C2*%
X129762000Y-108750000D03*
X128238000Y-108750000D03*
%TD*%
D13*
%TO.C,C19*%
X175762000Y-114500000D03*
X174238000Y-114500000D03*
%TD*%
D14*
%TO.C,R11*%
X134750000Y-124012000D03*
X134750000Y-122488000D03*
%TD*%
D15*
%TO.C,J2*%
X127250000Y-86630000D03*
D16*
X127250000Y-90440000D03*
X127250000Y-94250000D03*
X127250000Y-98060000D03*
X127250000Y-101870000D03*
%TD*%
D14*
%TO.C,C8*%
X141250000Y-123488000D03*
X141250000Y-125012000D03*
%TD*%
%TO.C,C20*%
X162750000Y-119738000D03*
X162750000Y-121262000D03*
%TD*%
D17*
%TO.C,SW1*%
X187900000Y-110000000D03*
X186100000Y-110000000D03*
D18*
X186275000Y-108200000D03*
X186275000Y-111800000D03*
X187725000Y-111800000D03*
X187725000Y-108200000D03*
D19*
X185300000Y-110000000D03*
%TD*%
D20*
%TO.C,L3*%
X175388000Y-118300000D03*
X176912000Y-118300000D03*
%TD*%
D11*
%TO.C,R3*%
X116238000Y-125450000D03*
X117762000Y-125450000D03*
%TD*%
D14*
%TO.C,R5*%
X122100000Y-108638000D03*
X122100000Y-110162000D03*
%TD*%
D11*
%TO.C,C31*%
X142488000Y-94500000D03*
X144012000Y-94500000D03*
%TD*%
D21*
%TO.C,U5*%
X137270000Y-95202500D03*
X137270000Y-94250000D03*
X137270000Y-93297500D03*
X134730000Y-93297500D03*
X134730000Y-94250000D03*
X134730000Y-95202500D03*
%TD*%
D11*
%TO.C,R2*%
X124738000Y-123750000D03*
X126262000Y-123750000D03*
%TD*%
D22*
%TO.C,C12*%
X166000000Y-125012000D03*
X166000000Y-123488000D03*
%TD*%
D14*
%TO.C,R19*%
X166510000Y-110188000D03*
X166510000Y-111712000D03*
%TD*%
D23*
%TO.C,SW2*%
X152000000Y-119800000D03*
X152000000Y-125200000D03*
%TD*%
D21*
%TO.C,U4*%
X137270000Y-91452500D03*
X137270000Y-90500000D03*
X137270000Y-89547500D03*
X134730000Y-89547500D03*
X134730000Y-90500000D03*
X134730000Y-91452500D03*
%TD*%
D20*
%TO.C,R16*%
X173488000Y-124500000D03*
X175012000Y-124500000D03*
%TD*%
D24*
%TO.C,U1*%
X137950000Y-115000000D03*
X137950000Y-115500000D03*
X137950000Y-116000000D03*
X137950000Y-116500000D03*
X137950000Y-117000000D03*
X137950000Y-117500000D03*
D25*
X138750000Y-118300000D03*
X139250000Y-118300000D03*
X139750000Y-118300000D03*
X140250000Y-118300000D03*
X140750000Y-118300000D03*
X141250000Y-118300000D03*
D24*
X142050000Y-117500000D03*
X142050000Y-117000000D03*
X142050000Y-116500000D03*
X142050000Y-116000000D03*
X142050000Y-115500000D03*
X142050000Y-115000000D03*
D25*
X141250000Y-114200000D03*
X140750000Y-114200000D03*
X140250000Y-114200000D03*
X139750000Y-114200000D03*
X139250000Y-114200000D03*
X138750000Y-114200000D03*
D26*
X140000000Y-116250000D03*
%TD*%
D20*
%TO.C,C15*%
X173488000Y-123000000D03*
X175012000Y-123000000D03*
%TD*%
D27*
%TO.C,L4*%
X146560000Y-90690000D03*
X144440000Y-92810000D03*
%TD*%
D11*
%TO.C,L1*%
X132238000Y-108500000D03*
X133762000Y-108500000D03*
%TD*%
D12*
%TO.C,TP7*%
X163040000Y-125250000D03*
%TD*%
D11*
%TO.C,R18*%
X145988000Y-115000000D03*
X147512000Y-115000000D03*
%TD*%
D28*
%TO.C,A1*%
X180960000Y-115960000D03*
X186040000Y-121040000D03*
X180960000Y-121040000D03*
X186040000Y-115960000D03*
X183500000Y-118500000D03*
%TD*%
D29*
%TO.C,Q1*%
X133156000Y-125319000D03*
X133156000Y-123541000D03*
X131124000Y-124430000D03*
%TD*%
D14*
%TO.C,C5*%
X135400000Y-113212000D03*
X135400000Y-111688000D03*
%TD*%
%TO.C,C27*%
X139500000Y-95762000D03*
X139500000Y-94238000D03*
%TD*%
D30*
%TO.C,U3*%
X161405000Y-113250000D03*
X160135000Y-113250000D03*
X158865000Y-113250000D03*
X157595000Y-113250000D03*
X157595000Y-119750000D03*
X158865000Y-119750000D03*
X160135000Y-119750000D03*
X161405000Y-119750000D03*
%TD*%
D13*
%TO.C,C18*%
X175762000Y-113000000D03*
X174238000Y-113000000D03*
%TD*%
D31*
%TO.C,C28*%
X136000000Y-98250000D03*
X136000000Y-102250000D03*
%TD*%
D14*
%TO.C,C3*%
X137000000Y-114012000D03*
X137000000Y-112488000D03*
%TD*%
D11*
%TO.C,R1*%
X124738000Y-108750000D03*
X126262000Y-108750000D03*
%TD*%
D14*
%TO.C,R8*%
X138000000Y-121262000D03*
X138000000Y-119738000D03*
%TD*%
D11*
%TO.C,C29*%
X146262000Y-84500000D03*
X144738000Y-84500000D03*
%TD*%
D20*
%TO.C,C14*%
X173488000Y-121500000D03*
X175012000Y-121500000D03*
%TD*%
D14*
%TO.C,R7*%
X140000000Y-120488000D03*
X140000000Y-122012000D03*
%TD*%
D32*
%TO.C,C25*%
X135250000Y-86750000D03*
X139250000Y-86750000D03*
%TD*%
D11*
%TO.C,C1*%
X129762000Y-123750000D03*
X128238000Y-123750000D03*
%TD*%
D33*
%TO.C,C6*%
X133952500Y-110250000D03*
X132047500Y-110250000D03*
%TD*%
D11*
%TO.C,C9*%
X144238000Y-117250000D03*
X145762000Y-117250000D03*
%TD*%
D14*
%TO.C,C26*%
X139500000Y-92012000D03*
X139500000Y-90488000D03*
%TD*%
D34*
%TO.C,C11*%
X172000000Y-123488000D03*
X172000000Y-125012000D03*
%TD*%
D14*
%TO.C,R9*%
X144500000Y-113488000D03*
X144500000Y-115012000D03*
%TD*%
D11*
%TO.C,R12*%
X137762000Y-125500000D03*
X136238000Y-125500000D03*
%TD*%
D14*
%TO.C,C23*%
X183500000Y-110762000D03*
X183500000Y-109238000D03*
%TD*%
D35*
%TO.C,U2*%
X171400000Y-118700000D03*
X171400000Y-118300000D03*
X171400000Y-117900000D03*
X171400000Y-117500000D03*
X171400000Y-117100000D03*
X171400000Y-116700000D03*
X171400000Y-116300000D03*
X171400000Y-115900000D03*
X171400000Y-115500000D03*
X171400000Y-115100000D03*
X171400000Y-114700000D03*
X171400000Y-114300000D03*
D36*
X170700000Y-113600000D03*
X170300000Y-113600000D03*
X169900000Y-113600000D03*
X169500000Y-113600000D03*
X169100000Y-113600000D03*
X168700000Y-113600000D03*
X168300000Y-113600000D03*
X167900000Y-113600000D03*
X167500000Y-113600000D03*
X167100000Y-113600000D03*
X166700000Y-113600000D03*
X166300000Y-113600000D03*
D37*
X165600000Y-114300000D03*
X165600000Y-114700000D03*
X165600000Y-115100000D03*
X165600000Y-115500000D03*
X165600000Y-115900000D03*
X165600000Y-116300000D03*
X165600000Y-116700000D03*
X165600000Y-117100000D03*
X165600000Y-117500000D03*
X165600000Y-117900000D03*
X165600000Y-118300000D03*
X165600000Y-118700000D03*
D38*
X166300000Y-119400000D03*
X166700000Y-119400000D03*
X167100000Y-119400000D03*
X167500000Y-119400000D03*
X167900000Y-119400000D03*
X168300000Y-119400000D03*
X168700000Y-119400000D03*
X169100000Y-119400000D03*
X169500000Y-119400000D03*
X169900000Y-119400000D03*
X170300000Y-119400000D03*
X170700000Y-119400000D03*
D39*
X169250000Y-117250000D03*
X169250000Y-115750000D03*
X167750000Y-115750000D03*
X167750000Y-117250000D03*
%TD*%
D33*
%TO.C,C4*%
X137202500Y-109250000D03*
X135297500Y-109250000D03*
%TD*%
D11*
%TO.C,R17*%
X148238000Y-120500000D03*
X149762000Y-120500000D03*
%TD*%
%TO.C,R13*%
X148238000Y-118750000D03*
X149762000Y-118750000D03*
%TD*%
D22*
%TO.C,C13*%
X172750000Y-117702000D03*
X172750000Y-116178000D03*
%TD*%
D40*
%TO.C,U6*%
X146452500Y-86230000D03*
X145500000Y-86230000D03*
X144547500Y-86230000D03*
X144547500Y-88770000D03*
X146452500Y-88770000D03*
%TD*%
D11*
%TO.C,R4*%
X110988000Y-125450000D03*
X112512000Y-125450000D03*
%TD*%
%TO.C,R10*%
X140762000Y-109250000D03*
X139238000Y-109250000D03*
%TD*%
D14*
%TO.C,C21*%
X164250000Y-118738000D03*
X164250000Y-120262000D03*
%TD*%
D41*
%TO.C,X1*%
X143400000Y-125500000D03*
X147100000Y-125500000D03*
X147100000Y-123000000D03*
X143400000Y-123000000D03*
%TD*%
D42*
%TO.C,T1*%
X131628960Y-120695000D03*
X131628960Y-119425000D03*
X131628960Y-118155000D03*
X131628960Y-116885000D03*
X131628960Y-115615000D03*
X131628960Y-114345000D03*
X131628960Y-113075000D03*
X131628960Y-111805000D03*
X122871040Y-111805000D03*
X122871040Y-113075000D03*
X122871040Y-114345000D03*
X122871040Y-115615000D03*
X122871040Y-116885000D03*
X122871040Y-118155000D03*
X122871040Y-119425000D03*
X122871040Y-120695000D03*
%TD*%
D14*
%TO.C,R6*%
X122200000Y-122138000D03*
X122200000Y-123662000D03*
%TD*%
D34*
%TO.C,C17*%
X178050000Y-118298000D03*
X178050000Y-119822000D03*
%TD*%
D13*
%TO.C,L2*%
X175762000Y-116000000D03*
X174238000Y-116000000D03*
%TD*%
D14*
%TO.C,C30*%
X142500000Y-92762000D03*
X142500000Y-91238000D03*
%TD*%
%TO.C,C7*%
X136250000Y-122488000D03*
X136250000Y-124012000D03*
%TD*%
D12*
%TO.C,TP4*%
X160500000Y-125250000D03*
%TD*%
D43*
%TO.C,J1*%
X109820000Y-122650000D03*
X109820000Y-109850000D03*
D44*
X112360000Y-119820000D03*
X114140000Y-118800000D03*
X112360000Y-117780000D03*
X114140000Y-116760000D03*
X112360000Y-115740000D03*
X114140000Y-114720000D03*
X112360000Y-113700000D03*
X114140000Y-112680000D03*
X118960000Y-123250000D03*
X118960000Y-120710000D03*
X118960000Y-111790000D03*
X118960000Y-109250000D03*
D45*
X113250000Y-109660000D03*
X113250000Y-122840000D03*
%TD*%
D34*
%TO.C,C16*%
X174250000Y-118298000D03*
X174250000Y-119822000D03*
%TD*%
%TO.C,R15*%
X172770000Y-112738000D03*
X172770000Y-114262000D03*
%TD*%
M02*
