%TF.GenerationSoftware,KiCad,Pcbnew,6.0.0*%
%TF.CreationDate,2022-01-14T21:47:45+01:00*%
%TF.ProjectId,cowmotics-aquarea,636f776d-6f74-4696-9373-2d6171756172,1*%
%TF.SameCoordinates,Original*%
%TF.FileFunction,Legend,Top*%
%TF.FilePolarity,Positive*%
%FSLAX46Y46*%
G04 Gerber Fmt 4.6, Leading zero omitted, Abs format (unit mm)*
G04 Created by KiCad (PCBNEW 6.0.0) date 2022-01-14 21:47:45*
%MOMM*%
%LPD*%
G01*
G04 APERTURE LIST*
%ADD10C,0.101600*%
%ADD11C,0.076200*%
%ADD12C,0.150000*%
%ADD13C,0.100000*%
%ADD14C,0.120000*%
%ADD15C,0.127000*%
%ADD16C,0.027940*%
G04 APERTURE END LIST*
D10*
X131247468Y-98114428D02*
X131828040Y-98114428D01*
X131537754Y-98404714D02*
X131537754Y-97824142D01*
X132590040Y-98404714D02*
X132154611Y-98404714D01*
X132372325Y-98404714D02*
X132372325Y-97642714D01*
X132299754Y-97751571D01*
X132227182Y-97824142D01*
X132154611Y-97860428D01*
X132880325Y-97715285D02*
X132916611Y-97679000D01*
X132989182Y-97642714D01*
X133170611Y-97642714D01*
X133243182Y-97679000D01*
X133279468Y-97715285D01*
X133315754Y-97787857D01*
X133315754Y-97860428D01*
X133279468Y-97969285D01*
X132844040Y-98404714D01*
X133315754Y-98404714D01*
X133533468Y-97642714D02*
X133787468Y-98404714D01*
X134041468Y-97642714D01*
X131247468Y-86684428D02*
X131828040Y-86684428D01*
X131537754Y-86974714D02*
X131537754Y-86394142D01*
X132553754Y-86212714D02*
X132190897Y-86212714D01*
X132154611Y-86575571D01*
X132190897Y-86539285D01*
X132263468Y-86503000D01*
X132444897Y-86503000D01*
X132517468Y-86539285D01*
X132553754Y-86575571D01*
X132590040Y-86648142D01*
X132590040Y-86829571D01*
X132553754Y-86902142D01*
X132517468Y-86938428D01*
X132444897Y-86974714D01*
X132263468Y-86974714D01*
X132190897Y-86938428D01*
X132154611Y-86902142D01*
X132807754Y-86212714D02*
X133061754Y-86974714D01*
X133315754Y-86212714D01*
X131682897Y-94594714D02*
X131428897Y-94231857D01*
X131247468Y-94594714D02*
X131247468Y-93832714D01*
X131537754Y-93832714D01*
X131610325Y-93869000D01*
X131646611Y-93905285D01*
X131682897Y-93977857D01*
X131682897Y-94086714D01*
X131646611Y-94159285D01*
X131610325Y-94195571D01*
X131537754Y-94231857D01*
X131247468Y-94231857D01*
X131936897Y-93832714D02*
X132444897Y-94594714D01*
X132444897Y-93832714D02*
X131936897Y-94594714D01*
X131138611Y-90022714D02*
X131574040Y-90022714D01*
X131356325Y-90784714D02*
X131356325Y-90022714D01*
X131755468Y-90022714D02*
X132263468Y-90784714D01*
X132263468Y-90022714D02*
X131755468Y-90784714D01*
X131646611Y-101489000D02*
X131574040Y-101452714D01*
X131465182Y-101452714D01*
X131356325Y-101489000D01*
X131283754Y-101561571D01*
X131247468Y-101634142D01*
X131211182Y-101779285D01*
X131211182Y-101888142D01*
X131247468Y-102033285D01*
X131283754Y-102105857D01*
X131356325Y-102178428D01*
X131465182Y-102214714D01*
X131537754Y-102214714D01*
X131646611Y-102178428D01*
X131682897Y-102142142D01*
X131682897Y-101888142D01*
X131537754Y-101888142D01*
X132009468Y-102214714D02*
X132009468Y-101452714D01*
X132444897Y-102214714D01*
X132444897Y-101452714D01*
X132807754Y-102214714D02*
X132807754Y-101452714D01*
X132989182Y-101452714D01*
X133098040Y-101489000D01*
X133170611Y-101561571D01*
X133206897Y-101634142D01*
X133243182Y-101779285D01*
X133243182Y-101888142D01*
X133206897Y-102033285D01*
X133170611Y-102105857D01*
X133098040Y-102178428D01*
X132989182Y-102214714D01*
X132807754Y-102214714D01*
D11*
%TO.C,X2*%
X168383142Y-121632714D02*
X168891142Y-122394714D01*
X168891142Y-121632714D02*
X168383142Y-122394714D01*
X169145142Y-121705285D02*
X169181428Y-121669000D01*
X169254000Y-121632714D01*
X169435428Y-121632714D01*
X169508000Y-121669000D01*
X169544285Y-121705285D01*
X169580571Y-121777857D01*
X169580571Y-121850428D01*
X169544285Y-121959285D01*
X169108857Y-122394714D01*
X169580571Y-122394714D01*
D10*
%TO.C,C22*%
X174590142Y-111022142D02*
X174553857Y-111058428D01*
X174445000Y-111094714D01*
X174372428Y-111094714D01*
X174263571Y-111058428D01*
X174191000Y-110985857D01*
X174154714Y-110913285D01*
X174118428Y-110768142D01*
X174118428Y-110659285D01*
X174154714Y-110514142D01*
X174191000Y-110441571D01*
X174263571Y-110369000D01*
X174372428Y-110332714D01*
X174445000Y-110332714D01*
X174553857Y-110369000D01*
X174590142Y-110405285D01*
X174880428Y-110405285D02*
X174916714Y-110369000D01*
X174989285Y-110332714D01*
X175170714Y-110332714D01*
X175243285Y-110369000D01*
X175279571Y-110405285D01*
X175315857Y-110477857D01*
X175315857Y-110550428D01*
X175279571Y-110659285D01*
X174844142Y-111094714D01*
X175315857Y-111094714D01*
X175606142Y-110405285D02*
X175642428Y-110369000D01*
X175715000Y-110332714D01*
X175896428Y-110332714D01*
X175969000Y-110369000D01*
X176005285Y-110405285D01*
X176041571Y-110477857D01*
X176041571Y-110550428D01*
X176005285Y-110659285D01*
X175569857Y-111094714D01*
X176041571Y-111094714D01*
%TO.C,C2*%
X128873000Y-107772142D02*
X128836714Y-107808428D01*
X128727857Y-107844714D01*
X128655285Y-107844714D01*
X128546428Y-107808428D01*
X128473857Y-107735857D01*
X128437571Y-107663285D01*
X128401285Y-107518142D01*
X128401285Y-107409285D01*
X128437571Y-107264142D01*
X128473857Y-107191571D01*
X128546428Y-107119000D01*
X128655285Y-107082714D01*
X128727857Y-107082714D01*
X128836714Y-107119000D01*
X128873000Y-107155285D01*
X129163285Y-107155285D02*
X129199571Y-107119000D01*
X129272142Y-107082714D01*
X129453571Y-107082714D01*
X129526142Y-107119000D01*
X129562428Y-107155285D01*
X129598714Y-107227857D01*
X129598714Y-107300428D01*
X129562428Y-107409285D01*
X129127000Y-107844714D01*
X129598714Y-107844714D01*
%TO.C,C19*%
X176762897Y-114772142D02*
X176726611Y-114808428D01*
X176617754Y-114844714D01*
X176545182Y-114844714D01*
X176436325Y-114808428D01*
X176363754Y-114735857D01*
X176327468Y-114663285D01*
X176291182Y-114518142D01*
X176291182Y-114409285D01*
X176327468Y-114264142D01*
X176363754Y-114191571D01*
X176436325Y-114119000D01*
X176545182Y-114082714D01*
X176617754Y-114082714D01*
X176726611Y-114119000D01*
X176762897Y-114155285D01*
X177488611Y-114844714D02*
X177053182Y-114844714D01*
X177270897Y-114844714D02*
X177270897Y-114082714D01*
X177198325Y-114191571D01*
X177125754Y-114264142D01*
X177053182Y-114300428D01*
X177851468Y-114844714D02*
X177996611Y-114844714D01*
X178069182Y-114808428D01*
X178105468Y-114772142D01*
X178178040Y-114663285D01*
X178214325Y-114518142D01*
X178214325Y-114227857D01*
X178178040Y-114155285D01*
X178141754Y-114119000D01*
X178069182Y-114082714D01*
X177924040Y-114082714D01*
X177851468Y-114119000D01*
X177815182Y-114155285D01*
X177778897Y-114227857D01*
X177778897Y-114409285D01*
X177815182Y-114481857D01*
X177851468Y-114518142D01*
X177924040Y-114554428D01*
X178069182Y-114554428D01*
X178141754Y-114518142D01*
X178178040Y-114481857D01*
X178214325Y-114409285D01*
%TO.C,R11*%
X134434714Y-121259857D02*
X134071857Y-121513857D01*
X134434714Y-121695285D02*
X133672714Y-121695285D01*
X133672714Y-121405000D01*
X133709000Y-121332428D01*
X133745285Y-121296142D01*
X133817857Y-121259857D01*
X133926714Y-121259857D01*
X133999285Y-121296142D01*
X134035571Y-121332428D01*
X134071857Y-121405000D01*
X134071857Y-121695285D01*
X134434714Y-120534142D02*
X134434714Y-120969571D01*
X134434714Y-120751857D02*
X133672714Y-120751857D01*
X133781571Y-120824428D01*
X133854142Y-120897000D01*
X133890428Y-120969571D01*
X134434714Y-119808428D02*
X134434714Y-120243857D01*
X134434714Y-120026142D02*
X133672714Y-120026142D01*
X133781571Y-120098714D01*
X133854142Y-120171285D01*
X133890428Y-120243857D01*
%TO.C,J2*%
X126996000Y-83672714D02*
X126996000Y-84217000D01*
X126959714Y-84325857D01*
X126887142Y-84398428D01*
X126778285Y-84434714D01*
X126705714Y-84434714D01*
X127322571Y-83745285D02*
X127358857Y-83709000D01*
X127431428Y-83672714D01*
X127612857Y-83672714D01*
X127685428Y-83709000D01*
X127721714Y-83745285D01*
X127758000Y-83817857D01*
X127758000Y-83890428D01*
X127721714Y-83999285D01*
X127286285Y-84434714D01*
X127758000Y-84434714D01*
%TO.C,C20*%
X161772142Y-122419857D02*
X161808428Y-122456142D01*
X161844714Y-122565000D01*
X161844714Y-122637571D01*
X161808428Y-122746428D01*
X161735857Y-122819000D01*
X161663285Y-122855285D01*
X161518142Y-122891571D01*
X161409285Y-122891571D01*
X161264142Y-122855285D01*
X161191571Y-122819000D01*
X161119000Y-122746428D01*
X161082714Y-122637571D01*
X161082714Y-122565000D01*
X161119000Y-122456142D01*
X161155285Y-122419857D01*
X161155285Y-122129571D02*
X161119000Y-122093285D01*
X161082714Y-122020714D01*
X161082714Y-121839285D01*
X161119000Y-121766714D01*
X161155285Y-121730428D01*
X161227857Y-121694142D01*
X161300428Y-121694142D01*
X161409285Y-121730428D01*
X161844714Y-122165857D01*
X161844714Y-121694142D01*
X161082714Y-121222428D02*
X161082714Y-121149857D01*
X161119000Y-121077285D01*
X161155285Y-121041000D01*
X161227857Y-121004714D01*
X161373000Y-120968428D01*
X161554428Y-120968428D01*
X161699571Y-121004714D01*
X161772142Y-121041000D01*
X161808428Y-121077285D01*
X161844714Y-121149857D01*
X161844714Y-121222428D01*
X161808428Y-121295000D01*
X161772142Y-121331285D01*
X161699571Y-121367571D01*
X161554428Y-121403857D01*
X161373000Y-121403857D01*
X161227857Y-121367571D01*
X161155285Y-121331285D01*
X161119000Y-121295000D01*
X161082714Y-121222428D01*
%TO.C,R3*%
X119723000Y-125804714D02*
X119469000Y-125441857D01*
X119287571Y-125804714D02*
X119287571Y-125042714D01*
X119577857Y-125042714D01*
X119650428Y-125079000D01*
X119686714Y-125115285D01*
X119723000Y-125187857D01*
X119723000Y-125296714D01*
X119686714Y-125369285D01*
X119650428Y-125405571D01*
X119577857Y-125441857D01*
X119287571Y-125441857D01*
X119977000Y-125042714D02*
X120448714Y-125042714D01*
X120194714Y-125333000D01*
X120303571Y-125333000D01*
X120376142Y-125369285D01*
X120412428Y-125405571D01*
X120448714Y-125478142D01*
X120448714Y-125659571D01*
X120412428Y-125732142D01*
X120376142Y-125768428D01*
X120303571Y-125804714D01*
X120085857Y-125804714D01*
X120013285Y-125768428D01*
X119977000Y-125732142D01*
%TO.C,R5*%
X123924714Y-108547000D02*
X123561857Y-108801000D01*
X123924714Y-108982428D02*
X123162714Y-108982428D01*
X123162714Y-108692142D01*
X123199000Y-108619571D01*
X123235285Y-108583285D01*
X123307857Y-108547000D01*
X123416714Y-108547000D01*
X123489285Y-108583285D01*
X123525571Y-108619571D01*
X123561857Y-108692142D01*
X123561857Y-108982428D01*
X123162714Y-107857571D02*
X123162714Y-108220428D01*
X123525571Y-108256714D01*
X123489285Y-108220428D01*
X123453000Y-108147857D01*
X123453000Y-107966428D01*
X123489285Y-107893857D01*
X123525571Y-107857571D01*
X123598142Y-107821285D01*
X123779571Y-107821285D01*
X123852142Y-107857571D01*
X123888428Y-107893857D01*
X123924714Y-107966428D01*
X123924714Y-108147857D01*
X123888428Y-108220428D01*
X123852142Y-108256714D01*
%TO.C,C31*%
X144190142Y-96102142D02*
X144153857Y-96138428D01*
X144045000Y-96174714D01*
X143972428Y-96174714D01*
X143863571Y-96138428D01*
X143791000Y-96065857D01*
X143754714Y-95993285D01*
X143718428Y-95848142D01*
X143718428Y-95739285D01*
X143754714Y-95594142D01*
X143791000Y-95521571D01*
X143863571Y-95449000D01*
X143972428Y-95412714D01*
X144045000Y-95412714D01*
X144153857Y-95449000D01*
X144190142Y-95485285D01*
X144444142Y-95412714D02*
X144915857Y-95412714D01*
X144661857Y-95703000D01*
X144770714Y-95703000D01*
X144843285Y-95739285D01*
X144879571Y-95775571D01*
X144915857Y-95848142D01*
X144915857Y-96029571D01*
X144879571Y-96102142D01*
X144843285Y-96138428D01*
X144770714Y-96174714D01*
X144553000Y-96174714D01*
X144480428Y-96138428D01*
X144444142Y-96102142D01*
X145641571Y-96174714D02*
X145206142Y-96174714D01*
X145423857Y-96174714D02*
X145423857Y-95412714D01*
X145351285Y-95521571D01*
X145278714Y-95594142D01*
X145206142Y-95630428D01*
D11*
%TO.C,U5*%
X138099428Y-92832714D02*
X138099428Y-93449571D01*
X138135714Y-93522142D01*
X138172000Y-93558428D01*
X138244571Y-93594714D01*
X138389714Y-93594714D01*
X138462285Y-93558428D01*
X138498571Y-93522142D01*
X138534857Y-93449571D01*
X138534857Y-92832714D01*
X139260571Y-92832714D02*
X138897714Y-92832714D01*
X138861428Y-93195571D01*
X138897714Y-93159285D01*
X138970285Y-93123000D01*
X139151714Y-93123000D01*
X139224285Y-93159285D01*
X139260571Y-93195571D01*
X139296857Y-93268142D01*
X139296857Y-93449571D01*
X139260571Y-93522142D01*
X139224285Y-93558428D01*
X139151714Y-93594714D01*
X138970285Y-93594714D01*
X138897714Y-93558428D01*
X138861428Y-93522142D01*
D10*
%TO.C,R2*%
X125393000Y-125564714D02*
X125139000Y-125201857D01*
X124957571Y-125564714D02*
X124957571Y-124802714D01*
X125247857Y-124802714D01*
X125320428Y-124839000D01*
X125356714Y-124875285D01*
X125393000Y-124947857D01*
X125393000Y-125056714D01*
X125356714Y-125129285D01*
X125320428Y-125165571D01*
X125247857Y-125201857D01*
X124957571Y-125201857D01*
X125683285Y-124875285D02*
X125719571Y-124839000D01*
X125792142Y-124802714D01*
X125973571Y-124802714D01*
X126046142Y-124839000D01*
X126082428Y-124875285D01*
X126118714Y-124947857D01*
X126118714Y-125020428D01*
X126082428Y-125129285D01*
X125647000Y-125564714D01*
X126118714Y-125564714D01*
%TO.C,C12*%
X164962142Y-125229857D02*
X164998428Y-125266142D01*
X165034714Y-125375000D01*
X165034714Y-125447571D01*
X164998428Y-125556428D01*
X164925857Y-125629000D01*
X164853285Y-125665285D01*
X164708142Y-125701571D01*
X164599285Y-125701571D01*
X164454142Y-125665285D01*
X164381571Y-125629000D01*
X164309000Y-125556428D01*
X164272714Y-125447571D01*
X164272714Y-125375000D01*
X164309000Y-125266142D01*
X164345285Y-125229857D01*
X165034714Y-124504142D02*
X165034714Y-124939571D01*
X165034714Y-124721857D02*
X164272714Y-124721857D01*
X164381571Y-124794428D01*
X164454142Y-124867000D01*
X164490428Y-124939571D01*
X164345285Y-124213857D02*
X164309000Y-124177571D01*
X164272714Y-124105000D01*
X164272714Y-123923571D01*
X164309000Y-123851000D01*
X164345285Y-123814714D01*
X164417857Y-123778428D01*
X164490428Y-123778428D01*
X164599285Y-123814714D01*
X165034714Y-124250142D01*
X165034714Y-123778428D01*
%TO.C,R19*%
X165554714Y-110749857D02*
X165191857Y-111003857D01*
X165554714Y-111185285D02*
X164792714Y-111185285D01*
X164792714Y-110895000D01*
X164829000Y-110822428D01*
X164865285Y-110786142D01*
X164937857Y-110749857D01*
X165046714Y-110749857D01*
X165119285Y-110786142D01*
X165155571Y-110822428D01*
X165191857Y-110895000D01*
X165191857Y-111185285D01*
X165554714Y-110024142D02*
X165554714Y-110459571D01*
X165554714Y-110241857D02*
X164792714Y-110241857D01*
X164901571Y-110314428D01*
X164974142Y-110387000D01*
X165010428Y-110459571D01*
X165554714Y-109661285D02*
X165554714Y-109516142D01*
X165518428Y-109443571D01*
X165482142Y-109407285D01*
X165373285Y-109334714D01*
X165228142Y-109298428D01*
X164937857Y-109298428D01*
X164865285Y-109334714D01*
X164829000Y-109371000D01*
X164792714Y-109443571D01*
X164792714Y-109588714D01*
X164829000Y-109661285D01*
X164865285Y-109697571D01*
X164937857Y-109733857D01*
X165119285Y-109733857D01*
X165191857Y-109697571D01*
X165228142Y-109661285D01*
X165264428Y-109588714D01*
X165264428Y-109443571D01*
X165228142Y-109371000D01*
X165191857Y-109334714D01*
X165119285Y-109298428D01*
%TO.C,SW2*%
X154668428Y-123516000D02*
X154704714Y-123407142D01*
X154704714Y-123225714D01*
X154668428Y-123153142D01*
X154632142Y-123116857D01*
X154559571Y-123080571D01*
X154487000Y-123080571D01*
X154414428Y-123116857D01*
X154378142Y-123153142D01*
X154341857Y-123225714D01*
X154305571Y-123370857D01*
X154269285Y-123443428D01*
X154233000Y-123479714D01*
X154160428Y-123516000D01*
X154087857Y-123516000D01*
X154015285Y-123479714D01*
X153979000Y-123443428D01*
X153942714Y-123370857D01*
X153942714Y-123189428D01*
X153979000Y-123080571D01*
X153942714Y-122826571D02*
X154704714Y-122645142D01*
X154160428Y-122500000D01*
X154704714Y-122354857D01*
X153942714Y-122173428D01*
X154015285Y-121919428D02*
X153979000Y-121883142D01*
X153942714Y-121810571D01*
X153942714Y-121629142D01*
X153979000Y-121556571D01*
X154015285Y-121520285D01*
X154087857Y-121484000D01*
X154160428Y-121484000D01*
X154269285Y-121520285D01*
X154704714Y-121955714D01*
X154704714Y-121484000D01*
D11*
%TO.C,U4*%
X138169428Y-89082714D02*
X138169428Y-89699571D01*
X138205714Y-89772142D01*
X138242000Y-89808428D01*
X138314571Y-89844714D01*
X138459714Y-89844714D01*
X138532285Y-89808428D01*
X138568571Y-89772142D01*
X138604857Y-89699571D01*
X138604857Y-89082714D01*
X139294285Y-89336714D02*
X139294285Y-89844714D01*
X139112857Y-89046428D02*
X138931428Y-89590714D01*
X139403142Y-89590714D01*
D10*
%TO.C,R16*%
X176012897Y-124844714D02*
X175758897Y-124481857D01*
X175577468Y-124844714D02*
X175577468Y-124082714D01*
X175867754Y-124082714D01*
X175940325Y-124119000D01*
X175976611Y-124155285D01*
X176012897Y-124227857D01*
X176012897Y-124336714D01*
X175976611Y-124409285D01*
X175940325Y-124445571D01*
X175867754Y-124481857D01*
X175577468Y-124481857D01*
X176738611Y-124844714D02*
X176303182Y-124844714D01*
X176520897Y-124844714D02*
X176520897Y-124082714D01*
X176448325Y-124191571D01*
X176375754Y-124264142D01*
X176303182Y-124300428D01*
X177391754Y-124082714D02*
X177246611Y-124082714D01*
X177174040Y-124119000D01*
X177137754Y-124155285D01*
X177065182Y-124264142D01*
X177028897Y-124409285D01*
X177028897Y-124699571D01*
X177065182Y-124772142D01*
X177101468Y-124808428D01*
X177174040Y-124844714D01*
X177319182Y-124844714D01*
X177391754Y-124808428D01*
X177428040Y-124772142D01*
X177464325Y-124699571D01*
X177464325Y-124518142D01*
X177428040Y-124445571D01*
X177391754Y-124409285D01*
X177319182Y-124373000D01*
X177174040Y-124373000D01*
X177101468Y-124409285D01*
X177065182Y-124445571D01*
X177028897Y-124518142D01*
%TO.C,U1*%
X140509428Y-112632714D02*
X140509428Y-113249571D01*
X140545714Y-113322142D01*
X140582000Y-113358428D01*
X140654571Y-113394714D01*
X140799714Y-113394714D01*
X140872285Y-113358428D01*
X140908571Y-113322142D01*
X140944857Y-113249571D01*
X140944857Y-112632714D01*
X141706857Y-113394714D02*
X141271428Y-113394714D01*
X141489142Y-113394714D02*
X141489142Y-112632714D01*
X141416571Y-112741571D01*
X141344000Y-112814142D01*
X141271428Y-112850428D01*
%TO.C,C15*%
X176012897Y-123272142D02*
X175976611Y-123308428D01*
X175867754Y-123344714D01*
X175795182Y-123344714D01*
X175686325Y-123308428D01*
X175613754Y-123235857D01*
X175577468Y-123163285D01*
X175541182Y-123018142D01*
X175541182Y-122909285D01*
X175577468Y-122764142D01*
X175613754Y-122691571D01*
X175686325Y-122619000D01*
X175795182Y-122582714D01*
X175867754Y-122582714D01*
X175976611Y-122619000D01*
X176012897Y-122655285D01*
X176738611Y-123344714D02*
X176303182Y-123344714D01*
X176520897Y-123344714D02*
X176520897Y-122582714D01*
X176448325Y-122691571D01*
X176375754Y-122764142D01*
X176303182Y-122800428D01*
X177428040Y-122582714D02*
X177065182Y-122582714D01*
X177028897Y-122945571D01*
X177065182Y-122909285D01*
X177137754Y-122873000D01*
X177319182Y-122873000D01*
X177391754Y-122909285D01*
X177428040Y-122945571D01*
X177464325Y-123018142D01*
X177464325Y-123199571D01*
X177428040Y-123272142D01*
X177391754Y-123308428D01*
X177319182Y-123344714D01*
X177137754Y-123344714D01*
X177065182Y-123308428D01*
X177028897Y-123272142D01*
%TO.C,L4*%
X148134714Y-92437000D02*
X148134714Y-92799857D01*
X147372714Y-92799857D01*
X147626714Y-91856428D02*
X148134714Y-91856428D01*
X147336428Y-92037857D02*
X147880714Y-92219285D01*
X147880714Y-91747571D01*
%TO.C,L1*%
X130893000Y-107964714D02*
X130530142Y-107964714D01*
X130530142Y-107202714D01*
X131546142Y-107964714D02*
X131110714Y-107964714D01*
X131328428Y-107964714D02*
X131328428Y-107202714D01*
X131255857Y-107311571D01*
X131183285Y-107384142D01*
X131110714Y-107420428D01*
%TO.C,R18*%
X146720142Y-114084714D02*
X146466142Y-113721857D01*
X146284714Y-114084714D02*
X146284714Y-113322714D01*
X146575000Y-113322714D01*
X146647571Y-113359000D01*
X146683857Y-113395285D01*
X146720142Y-113467857D01*
X146720142Y-113576714D01*
X146683857Y-113649285D01*
X146647571Y-113685571D01*
X146575000Y-113721857D01*
X146284714Y-113721857D01*
X147445857Y-114084714D02*
X147010428Y-114084714D01*
X147228142Y-114084714D02*
X147228142Y-113322714D01*
X147155571Y-113431571D01*
X147083000Y-113504142D01*
X147010428Y-113540428D01*
X147881285Y-113649285D02*
X147808714Y-113613000D01*
X147772428Y-113576714D01*
X147736142Y-113504142D01*
X147736142Y-113467857D01*
X147772428Y-113395285D01*
X147808714Y-113359000D01*
X147881285Y-113322714D01*
X148026428Y-113322714D01*
X148099000Y-113359000D01*
X148135285Y-113395285D01*
X148171571Y-113467857D01*
X148171571Y-113504142D01*
X148135285Y-113576714D01*
X148099000Y-113613000D01*
X148026428Y-113649285D01*
X147881285Y-113649285D01*
X147808714Y-113685571D01*
X147772428Y-113721857D01*
X147736142Y-113794428D01*
X147736142Y-113939571D01*
X147772428Y-114012142D01*
X147808714Y-114048428D01*
X147881285Y-114084714D01*
X148026428Y-114084714D01*
X148099000Y-114048428D01*
X148135285Y-114012142D01*
X148171571Y-113939571D01*
X148171571Y-113794428D01*
X148135285Y-113721857D01*
X148099000Y-113685571D01*
X148026428Y-113649285D01*
%TO.C,A1*%
X182928500Y-114213750D02*
X183309500Y-114213750D01*
X182852300Y-114442350D02*
X183119000Y-113642250D01*
X183385700Y-114442350D01*
X184071500Y-114442350D02*
X183614300Y-114442350D01*
X183842900Y-114442350D02*
X183842900Y-113642250D01*
X183766700Y-113756550D01*
X183690500Y-113832750D01*
X183614300Y-113870850D01*
%TO.C,Q1*%
X130517428Y-126177285D02*
X130444857Y-126141000D01*
X130372285Y-126068428D01*
X130263428Y-125959571D01*
X130190857Y-125923285D01*
X130118285Y-125923285D01*
X130154571Y-126104714D02*
X130082000Y-126068428D01*
X130009428Y-125995857D01*
X129973142Y-125850714D01*
X129973142Y-125596714D01*
X130009428Y-125451571D01*
X130082000Y-125379000D01*
X130154571Y-125342714D01*
X130299714Y-125342714D01*
X130372285Y-125379000D01*
X130444857Y-125451571D01*
X130481142Y-125596714D01*
X130481142Y-125850714D01*
X130444857Y-125995857D01*
X130372285Y-126068428D01*
X130299714Y-126104714D01*
X130154571Y-126104714D01*
X131206857Y-126104714D02*
X130771428Y-126104714D01*
X130989142Y-126104714D02*
X130989142Y-125342714D01*
X130916571Y-125451571D01*
X130844000Y-125524142D01*
X130771428Y-125560428D01*
%TO.C,C5*%
X134342142Y-113737000D02*
X134378428Y-113773285D01*
X134414714Y-113882142D01*
X134414714Y-113954714D01*
X134378428Y-114063571D01*
X134305857Y-114136142D01*
X134233285Y-114172428D01*
X134088142Y-114208714D01*
X133979285Y-114208714D01*
X133834142Y-114172428D01*
X133761571Y-114136142D01*
X133689000Y-114063571D01*
X133652714Y-113954714D01*
X133652714Y-113882142D01*
X133689000Y-113773285D01*
X133725285Y-113737000D01*
X133652714Y-113047571D02*
X133652714Y-113410428D01*
X134015571Y-113446714D01*
X133979285Y-113410428D01*
X133943000Y-113337857D01*
X133943000Y-113156428D01*
X133979285Y-113083857D01*
X134015571Y-113047571D01*
X134088142Y-113011285D01*
X134269571Y-113011285D01*
X134342142Y-113047571D01*
X134378428Y-113083857D01*
X134414714Y-113156428D01*
X134414714Y-113337857D01*
X134378428Y-113410428D01*
X134342142Y-113446714D01*
%TO.C,C27*%
X141122142Y-94689857D02*
X141158428Y-94726142D01*
X141194714Y-94835000D01*
X141194714Y-94907571D01*
X141158428Y-95016428D01*
X141085857Y-95089000D01*
X141013285Y-95125285D01*
X140868142Y-95161571D01*
X140759285Y-95161571D01*
X140614142Y-95125285D01*
X140541571Y-95089000D01*
X140469000Y-95016428D01*
X140432714Y-94907571D01*
X140432714Y-94835000D01*
X140469000Y-94726142D01*
X140505285Y-94689857D01*
X140505285Y-94399571D02*
X140469000Y-94363285D01*
X140432714Y-94290714D01*
X140432714Y-94109285D01*
X140469000Y-94036714D01*
X140505285Y-94000428D01*
X140577857Y-93964142D01*
X140650428Y-93964142D01*
X140759285Y-94000428D01*
X141194714Y-94435857D01*
X141194714Y-93964142D01*
X140432714Y-93710142D02*
X140432714Y-93202142D01*
X141194714Y-93528714D01*
%TO.C,U3*%
X162502714Y-117900571D02*
X163119571Y-117900571D01*
X163192142Y-117864285D01*
X163228428Y-117828000D01*
X163264714Y-117755428D01*
X163264714Y-117610285D01*
X163228428Y-117537714D01*
X163192142Y-117501428D01*
X163119571Y-117465142D01*
X162502714Y-117465142D01*
X162502714Y-117174857D02*
X162502714Y-116703142D01*
X162793000Y-116957142D01*
X162793000Y-116848285D01*
X162829285Y-116775714D01*
X162865571Y-116739428D01*
X162938142Y-116703142D01*
X163119571Y-116703142D01*
X163192142Y-116739428D01*
X163228428Y-116775714D01*
X163264714Y-116848285D01*
X163264714Y-117066000D01*
X163228428Y-117138571D01*
X163192142Y-117174857D01*
%TO.C,C18*%
X176762897Y-113272142D02*
X176726611Y-113308428D01*
X176617754Y-113344714D01*
X176545182Y-113344714D01*
X176436325Y-113308428D01*
X176363754Y-113235857D01*
X176327468Y-113163285D01*
X176291182Y-113018142D01*
X176291182Y-112909285D01*
X176327468Y-112764142D01*
X176363754Y-112691571D01*
X176436325Y-112619000D01*
X176545182Y-112582714D01*
X176617754Y-112582714D01*
X176726611Y-112619000D01*
X176762897Y-112655285D01*
X177488611Y-113344714D02*
X177053182Y-113344714D01*
X177270897Y-113344714D02*
X177270897Y-112582714D01*
X177198325Y-112691571D01*
X177125754Y-112764142D01*
X177053182Y-112800428D01*
X177924040Y-112909285D02*
X177851468Y-112873000D01*
X177815182Y-112836714D01*
X177778897Y-112764142D01*
X177778897Y-112727857D01*
X177815182Y-112655285D01*
X177851468Y-112619000D01*
X177924040Y-112582714D01*
X178069182Y-112582714D01*
X178141754Y-112619000D01*
X178178040Y-112655285D01*
X178214325Y-112727857D01*
X178214325Y-112764142D01*
X178178040Y-112836714D01*
X178141754Y-112873000D01*
X178069182Y-112909285D01*
X177924040Y-112909285D01*
X177851468Y-112945571D01*
X177815182Y-112981857D01*
X177778897Y-113054428D01*
X177778897Y-113199571D01*
X177815182Y-113272142D01*
X177851468Y-113308428D01*
X177924040Y-113344714D01*
X178069182Y-113344714D01*
X178141754Y-113308428D01*
X178178040Y-113272142D01*
X178214325Y-113199571D01*
X178214325Y-113054428D01*
X178178040Y-112981857D01*
X178141754Y-112945571D01*
X178069182Y-112909285D01*
D12*
%TO.C,C28*%
X139057142Y-100892857D02*
X139104761Y-100940476D01*
X139152380Y-101083333D01*
X139152380Y-101178571D01*
X139104761Y-101321428D01*
X139009523Y-101416666D01*
X138914285Y-101464285D01*
X138723809Y-101511904D01*
X138580952Y-101511904D01*
X138390476Y-101464285D01*
X138295238Y-101416666D01*
X138200000Y-101321428D01*
X138152380Y-101178571D01*
X138152380Y-101083333D01*
X138200000Y-100940476D01*
X138247619Y-100892857D01*
X138247619Y-100511904D02*
X138200000Y-100464285D01*
X138152380Y-100369047D01*
X138152380Y-100130952D01*
X138200000Y-100035714D01*
X138247619Y-99988095D01*
X138342857Y-99940476D01*
X138438095Y-99940476D01*
X138580952Y-99988095D01*
X139152380Y-100559523D01*
X139152380Y-99940476D01*
X138580952Y-99369047D02*
X138533333Y-99464285D01*
X138485714Y-99511904D01*
X138390476Y-99559523D01*
X138342857Y-99559523D01*
X138247619Y-99511904D01*
X138200000Y-99464285D01*
X138152380Y-99369047D01*
X138152380Y-99178571D01*
X138200000Y-99083333D01*
X138247619Y-99035714D01*
X138342857Y-98988095D01*
X138390476Y-98988095D01*
X138485714Y-99035714D01*
X138533333Y-99083333D01*
X138580952Y-99178571D01*
X138580952Y-99369047D01*
X138628571Y-99464285D01*
X138676190Y-99511904D01*
X138771428Y-99559523D01*
X138961904Y-99559523D01*
X139057142Y-99511904D01*
X139104761Y-99464285D01*
X139152380Y-99369047D01*
X139152380Y-99178571D01*
X139104761Y-99083333D01*
X139057142Y-99035714D01*
X138961904Y-98988095D01*
X138771428Y-98988095D01*
X138676190Y-99035714D01*
X138628571Y-99083333D01*
X138580952Y-99178571D01*
D10*
%TO.C,C3*%
X135982142Y-115117000D02*
X136018428Y-115153285D01*
X136054714Y-115262142D01*
X136054714Y-115334714D01*
X136018428Y-115443571D01*
X135945857Y-115516142D01*
X135873285Y-115552428D01*
X135728142Y-115588714D01*
X135619285Y-115588714D01*
X135474142Y-115552428D01*
X135401571Y-115516142D01*
X135329000Y-115443571D01*
X135292714Y-115334714D01*
X135292714Y-115262142D01*
X135329000Y-115153285D01*
X135365285Y-115117000D01*
X135292714Y-114863000D02*
X135292714Y-114391285D01*
X135583000Y-114645285D01*
X135583000Y-114536428D01*
X135619285Y-114463857D01*
X135655571Y-114427571D01*
X135728142Y-114391285D01*
X135909571Y-114391285D01*
X135982142Y-114427571D01*
X136018428Y-114463857D01*
X136054714Y-114536428D01*
X136054714Y-114754142D01*
X136018428Y-114826714D01*
X135982142Y-114863000D01*
%TO.C,R1*%
X125373000Y-107844714D02*
X125119000Y-107481857D01*
X124937571Y-107844714D02*
X124937571Y-107082714D01*
X125227857Y-107082714D01*
X125300428Y-107119000D01*
X125336714Y-107155285D01*
X125373000Y-107227857D01*
X125373000Y-107336714D01*
X125336714Y-107409285D01*
X125300428Y-107445571D01*
X125227857Y-107481857D01*
X124937571Y-107481857D01*
X126098714Y-107844714D02*
X125663285Y-107844714D01*
X125881000Y-107844714D02*
X125881000Y-107082714D01*
X125808428Y-107191571D01*
X125735857Y-107264142D01*
X125663285Y-107300428D01*
%TO.C,R8*%
X137004714Y-119687000D02*
X136641857Y-119941000D01*
X137004714Y-120122428D02*
X136242714Y-120122428D01*
X136242714Y-119832142D01*
X136279000Y-119759571D01*
X136315285Y-119723285D01*
X136387857Y-119687000D01*
X136496714Y-119687000D01*
X136569285Y-119723285D01*
X136605571Y-119759571D01*
X136641857Y-119832142D01*
X136641857Y-120122428D01*
X136569285Y-119251571D02*
X136533000Y-119324142D01*
X136496714Y-119360428D01*
X136424142Y-119396714D01*
X136387857Y-119396714D01*
X136315285Y-119360428D01*
X136279000Y-119324142D01*
X136242714Y-119251571D01*
X136242714Y-119106428D01*
X136279000Y-119033857D01*
X136315285Y-118997571D01*
X136387857Y-118961285D01*
X136424142Y-118961285D01*
X136496714Y-118997571D01*
X136533000Y-119033857D01*
X136569285Y-119106428D01*
X136569285Y-119251571D01*
X136605571Y-119324142D01*
X136641857Y-119360428D01*
X136714428Y-119396714D01*
X136859571Y-119396714D01*
X136932142Y-119360428D01*
X136968428Y-119324142D01*
X137004714Y-119251571D01*
X137004714Y-119106428D01*
X136968428Y-119033857D01*
X136932142Y-118997571D01*
X136859571Y-118961285D01*
X136714428Y-118961285D01*
X136641857Y-118997571D01*
X136605571Y-119033857D01*
X136569285Y-119106428D01*
%TO.C,C29*%
X141910142Y-84772142D02*
X141873857Y-84808428D01*
X141765000Y-84844714D01*
X141692428Y-84844714D01*
X141583571Y-84808428D01*
X141511000Y-84735857D01*
X141474714Y-84663285D01*
X141438428Y-84518142D01*
X141438428Y-84409285D01*
X141474714Y-84264142D01*
X141511000Y-84191571D01*
X141583571Y-84119000D01*
X141692428Y-84082714D01*
X141765000Y-84082714D01*
X141873857Y-84119000D01*
X141910142Y-84155285D01*
X142200428Y-84155285D02*
X142236714Y-84119000D01*
X142309285Y-84082714D01*
X142490714Y-84082714D01*
X142563285Y-84119000D01*
X142599571Y-84155285D01*
X142635857Y-84227857D01*
X142635857Y-84300428D01*
X142599571Y-84409285D01*
X142164142Y-84844714D01*
X142635857Y-84844714D01*
X142998714Y-84844714D02*
X143143857Y-84844714D01*
X143216428Y-84808428D01*
X143252714Y-84772142D01*
X143325285Y-84663285D01*
X143361571Y-84518142D01*
X143361571Y-84227857D01*
X143325285Y-84155285D01*
X143289000Y-84119000D01*
X143216428Y-84082714D01*
X143071285Y-84082714D01*
X142998714Y-84119000D01*
X142962428Y-84155285D01*
X142926142Y-84227857D01*
X142926142Y-84409285D01*
X142962428Y-84481857D01*
X142998714Y-84518142D01*
X143071285Y-84554428D01*
X143216428Y-84554428D01*
X143289000Y-84518142D01*
X143325285Y-84481857D01*
X143361571Y-84409285D01*
%TO.C,C14*%
X176892897Y-121772142D02*
X176856611Y-121808428D01*
X176747754Y-121844714D01*
X176675182Y-121844714D01*
X176566325Y-121808428D01*
X176493754Y-121735857D01*
X176457468Y-121663285D01*
X176421182Y-121518142D01*
X176421182Y-121409285D01*
X176457468Y-121264142D01*
X176493754Y-121191571D01*
X176566325Y-121119000D01*
X176675182Y-121082714D01*
X176747754Y-121082714D01*
X176856611Y-121119000D01*
X176892897Y-121155285D01*
X177618611Y-121844714D02*
X177183182Y-121844714D01*
X177400897Y-121844714D02*
X177400897Y-121082714D01*
X177328325Y-121191571D01*
X177255754Y-121264142D01*
X177183182Y-121300428D01*
X178271754Y-121336714D02*
X178271754Y-121844714D01*
X178090325Y-121046428D02*
X177908897Y-121590714D01*
X178380611Y-121590714D01*
%TO.C,R7*%
X141744714Y-120367000D02*
X141381857Y-120621000D01*
X141744714Y-120802428D02*
X140982714Y-120802428D01*
X140982714Y-120512142D01*
X141019000Y-120439571D01*
X141055285Y-120403285D01*
X141127857Y-120367000D01*
X141236714Y-120367000D01*
X141309285Y-120403285D01*
X141345571Y-120439571D01*
X141381857Y-120512142D01*
X141381857Y-120802428D01*
X140982714Y-120113000D02*
X140982714Y-119605000D01*
X141744714Y-119931571D01*
%TO.C,C25*%
X136760142Y-84672142D02*
X136723857Y-84708428D01*
X136615000Y-84744714D01*
X136542428Y-84744714D01*
X136433571Y-84708428D01*
X136361000Y-84635857D01*
X136324714Y-84563285D01*
X136288428Y-84418142D01*
X136288428Y-84309285D01*
X136324714Y-84164142D01*
X136361000Y-84091571D01*
X136433571Y-84019000D01*
X136542428Y-83982714D01*
X136615000Y-83982714D01*
X136723857Y-84019000D01*
X136760142Y-84055285D01*
X137050428Y-84055285D02*
X137086714Y-84019000D01*
X137159285Y-83982714D01*
X137340714Y-83982714D01*
X137413285Y-84019000D01*
X137449571Y-84055285D01*
X137485857Y-84127857D01*
X137485857Y-84200428D01*
X137449571Y-84309285D01*
X137014142Y-84744714D01*
X137485857Y-84744714D01*
X138175285Y-83982714D02*
X137812428Y-83982714D01*
X137776142Y-84345571D01*
X137812428Y-84309285D01*
X137885000Y-84273000D01*
X138066428Y-84273000D01*
X138139000Y-84309285D01*
X138175285Y-84345571D01*
X138211571Y-84418142D01*
X138211571Y-84599571D01*
X138175285Y-84672142D01*
X138139000Y-84708428D01*
X138066428Y-84744714D01*
X137885000Y-84744714D01*
X137812428Y-84708428D01*
X137776142Y-84672142D01*
%TO.C,C1*%
X128873000Y-125472142D02*
X128836714Y-125508428D01*
X128727857Y-125544714D01*
X128655285Y-125544714D01*
X128546428Y-125508428D01*
X128473857Y-125435857D01*
X128437571Y-125363285D01*
X128401285Y-125218142D01*
X128401285Y-125109285D01*
X128437571Y-124964142D01*
X128473857Y-124891571D01*
X128546428Y-124819000D01*
X128655285Y-124782714D01*
X128727857Y-124782714D01*
X128836714Y-124819000D01*
X128873000Y-124855285D01*
X129598714Y-125544714D02*
X129163285Y-125544714D01*
X129381000Y-125544714D02*
X129381000Y-124782714D01*
X129308428Y-124891571D01*
X129235857Y-124964142D01*
X129163285Y-125000428D01*
%TO.C,C6*%
X133463000Y-112082142D02*
X133426714Y-112118428D01*
X133317857Y-112154714D01*
X133245285Y-112154714D01*
X133136428Y-112118428D01*
X133063857Y-112045857D01*
X133027571Y-111973285D01*
X132991285Y-111828142D01*
X132991285Y-111719285D01*
X133027571Y-111574142D01*
X133063857Y-111501571D01*
X133136428Y-111429000D01*
X133245285Y-111392714D01*
X133317857Y-111392714D01*
X133426714Y-111429000D01*
X133463000Y-111465285D01*
X134116142Y-111392714D02*
X133971000Y-111392714D01*
X133898428Y-111429000D01*
X133862142Y-111465285D01*
X133789571Y-111574142D01*
X133753285Y-111719285D01*
X133753285Y-112009571D01*
X133789571Y-112082142D01*
X133825857Y-112118428D01*
X133898428Y-112154714D01*
X134043571Y-112154714D01*
X134116142Y-112118428D01*
X134152428Y-112082142D01*
X134188714Y-112009571D01*
X134188714Y-111828142D01*
X134152428Y-111755571D01*
X134116142Y-111719285D01*
X134043571Y-111683000D01*
X133898428Y-111683000D01*
X133825857Y-111719285D01*
X133789571Y-111755571D01*
X133753285Y-111828142D01*
%TO.C,C9*%
X144873000Y-118822142D02*
X144836714Y-118858428D01*
X144727857Y-118894714D01*
X144655285Y-118894714D01*
X144546428Y-118858428D01*
X144473857Y-118785857D01*
X144437571Y-118713285D01*
X144401285Y-118568142D01*
X144401285Y-118459285D01*
X144437571Y-118314142D01*
X144473857Y-118241571D01*
X144546428Y-118169000D01*
X144655285Y-118132714D01*
X144727857Y-118132714D01*
X144836714Y-118169000D01*
X144873000Y-118205285D01*
X145235857Y-118894714D02*
X145381000Y-118894714D01*
X145453571Y-118858428D01*
X145489857Y-118822142D01*
X145562428Y-118713285D01*
X145598714Y-118568142D01*
X145598714Y-118277857D01*
X145562428Y-118205285D01*
X145526142Y-118169000D01*
X145453571Y-118132714D01*
X145308428Y-118132714D01*
X145235857Y-118169000D01*
X145199571Y-118205285D01*
X145163285Y-118277857D01*
X145163285Y-118459285D01*
X145199571Y-118531857D01*
X145235857Y-118568142D01*
X145308428Y-118604428D01*
X145453571Y-118604428D01*
X145526142Y-118568142D01*
X145562428Y-118531857D01*
X145598714Y-118459285D01*
%TO.C,C26*%
X141072142Y-90779857D02*
X141108428Y-90816142D01*
X141144714Y-90925000D01*
X141144714Y-90997571D01*
X141108428Y-91106428D01*
X141035857Y-91179000D01*
X140963285Y-91215285D01*
X140818142Y-91251571D01*
X140709285Y-91251571D01*
X140564142Y-91215285D01*
X140491571Y-91179000D01*
X140419000Y-91106428D01*
X140382714Y-90997571D01*
X140382714Y-90925000D01*
X140419000Y-90816142D01*
X140455285Y-90779857D01*
X140455285Y-90489571D02*
X140419000Y-90453285D01*
X140382714Y-90380714D01*
X140382714Y-90199285D01*
X140419000Y-90126714D01*
X140455285Y-90090428D01*
X140527857Y-90054142D01*
X140600428Y-90054142D01*
X140709285Y-90090428D01*
X141144714Y-90525857D01*
X141144714Y-90054142D01*
X140382714Y-89401000D02*
X140382714Y-89546142D01*
X140419000Y-89618714D01*
X140455285Y-89655000D01*
X140564142Y-89727571D01*
X140709285Y-89763857D01*
X140999571Y-89763857D01*
X141072142Y-89727571D01*
X141108428Y-89691285D01*
X141144714Y-89618714D01*
X141144714Y-89473571D01*
X141108428Y-89401000D01*
X141072142Y-89364714D01*
X140999571Y-89328428D01*
X140818142Y-89328428D01*
X140745571Y-89364714D01*
X140709285Y-89401000D01*
X140673000Y-89473571D01*
X140673000Y-89618714D01*
X140709285Y-89691285D01*
X140745571Y-89727571D01*
X140818142Y-89763857D01*
%TO.C,C11*%
X172272142Y-122487102D02*
X172308428Y-122523388D01*
X172344714Y-122632245D01*
X172344714Y-122704817D01*
X172308428Y-122813674D01*
X172235857Y-122886245D01*
X172163285Y-122922531D01*
X172018142Y-122958817D01*
X171909285Y-122958817D01*
X171764142Y-122922531D01*
X171691571Y-122886245D01*
X171619000Y-122813674D01*
X171582714Y-122704817D01*
X171582714Y-122632245D01*
X171619000Y-122523388D01*
X171655285Y-122487102D01*
X172344714Y-121761388D02*
X172344714Y-122196817D01*
X172344714Y-121979102D02*
X171582714Y-121979102D01*
X171691571Y-122051674D01*
X171764142Y-122124245D01*
X171800428Y-122196817D01*
X172344714Y-121035674D02*
X172344714Y-121471102D01*
X172344714Y-121253388D02*
X171582714Y-121253388D01*
X171691571Y-121325960D01*
X171764142Y-121398531D01*
X171800428Y-121471102D01*
%TO.C,R9*%
X144824714Y-112327000D02*
X144461857Y-112581000D01*
X144824714Y-112762428D02*
X144062714Y-112762428D01*
X144062714Y-112472142D01*
X144099000Y-112399571D01*
X144135285Y-112363285D01*
X144207857Y-112327000D01*
X144316714Y-112327000D01*
X144389285Y-112363285D01*
X144425571Y-112399571D01*
X144461857Y-112472142D01*
X144461857Y-112762428D01*
X144824714Y-111964142D02*
X144824714Y-111819000D01*
X144788428Y-111746428D01*
X144752142Y-111710142D01*
X144643285Y-111637571D01*
X144498142Y-111601285D01*
X144207857Y-111601285D01*
X144135285Y-111637571D01*
X144099000Y-111673857D01*
X144062714Y-111746428D01*
X144062714Y-111891571D01*
X144099000Y-111964142D01*
X144135285Y-112000428D01*
X144207857Y-112036714D01*
X144389285Y-112036714D01*
X144461857Y-112000428D01*
X144498142Y-111964142D01*
X144534428Y-111891571D01*
X144534428Y-111746428D01*
X144498142Y-111673857D01*
X144461857Y-111637571D01*
X144389285Y-111601285D01*
%TO.C,C23*%
X182522142Y-110489857D02*
X182558428Y-110526142D01*
X182594714Y-110635000D01*
X182594714Y-110707571D01*
X182558428Y-110816428D01*
X182485857Y-110889000D01*
X182413285Y-110925285D01*
X182268142Y-110961571D01*
X182159285Y-110961571D01*
X182014142Y-110925285D01*
X181941571Y-110889000D01*
X181869000Y-110816428D01*
X181832714Y-110707571D01*
X181832714Y-110635000D01*
X181869000Y-110526142D01*
X181905285Y-110489857D01*
X181905285Y-110199571D02*
X181869000Y-110163285D01*
X181832714Y-110090714D01*
X181832714Y-109909285D01*
X181869000Y-109836714D01*
X181905285Y-109800428D01*
X181977857Y-109764142D01*
X182050428Y-109764142D01*
X182159285Y-109800428D01*
X182594714Y-110235857D01*
X182594714Y-109764142D01*
X181832714Y-109510142D02*
X181832714Y-109038428D01*
X182123000Y-109292428D01*
X182123000Y-109183571D01*
X182159285Y-109111000D01*
X182195571Y-109074714D01*
X182268142Y-109038428D01*
X182449571Y-109038428D01*
X182522142Y-109074714D01*
X182558428Y-109111000D01*
X182594714Y-109183571D01*
X182594714Y-109401285D01*
X182558428Y-109473857D01*
X182522142Y-109510142D01*
%TO.C,U2*%
X164082714Y-117080571D02*
X164699571Y-117080571D01*
X164772142Y-117044285D01*
X164808428Y-117008000D01*
X164844714Y-116935428D01*
X164844714Y-116790285D01*
X164808428Y-116717714D01*
X164772142Y-116681428D01*
X164699571Y-116645142D01*
X164082714Y-116645142D01*
X164155285Y-116318571D02*
X164119000Y-116282285D01*
X164082714Y-116209714D01*
X164082714Y-116028285D01*
X164119000Y-115955714D01*
X164155285Y-115919428D01*
X164227857Y-115883142D01*
X164300428Y-115883142D01*
X164409285Y-115919428D01*
X164844714Y-116354857D01*
X164844714Y-115883142D01*
%TO.C,C4*%
X136563000Y-108192142D02*
X136526714Y-108228428D01*
X136417857Y-108264714D01*
X136345285Y-108264714D01*
X136236428Y-108228428D01*
X136163857Y-108155857D01*
X136127571Y-108083285D01*
X136091285Y-107938142D01*
X136091285Y-107829285D01*
X136127571Y-107684142D01*
X136163857Y-107611571D01*
X136236428Y-107539000D01*
X136345285Y-107502714D01*
X136417857Y-107502714D01*
X136526714Y-107539000D01*
X136563000Y-107575285D01*
X137216142Y-107756714D02*
X137216142Y-108264714D01*
X137034714Y-107466428D02*
X136853285Y-108010714D01*
X137325000Y-108010714D01*
%TO.C,R17*%
X146130142Y-120734714D02*
X145876142Y-120371857D01*
X145694714Y-120734714D02*
X145694714Y-119972714D01*
X145985000Y-119972714D01*
X146057571Y-120009000D01*
X146093857Y-120045285D01*
X146130142Y-120117857D01*
X146130142Y-120226714D01*
X146093857Y-120299285D01*
X146057571Y-120335571D01*
X145985000Y-120371857D01*
X145694714Y-120371857D01*
X146855857Y-120734714D02*
X146420428Y-120734714D01*
X146638142Y-120734714D02*
X146638142Y-119972714D01*
X146565571Y-120081571D01*
X146493000Y-120154142D01*
X146420428Y-120190428D01*
X147109857Y-119972714D02*
X147617857Y-119972714D01*
X147291285Y-120734714D01*
%TO.C,R13*%
X148510142Y-117744714D02*
X148256142Y-117381857D01*
X148074714Y-117744714D02*
X148074714Y-116982714D01*
X148365000Y-116982714D01*
X148437571Y-117019000D01*
X148473857Y-117055285D01*
X148510142Y-117127857D01*
X148510142Y-117236714D01*
X148473857Y-117309285D01*
X148437571Y-117345571D01*
X148365000Y-117381857D01*
X148074714Y-117381857D01*
X149235857Y-117744714D02*
X148800428Y-117744714D01*
X149018142Y-117744714D02*
X149018142Y-116982714D01*
X148945571Y-117091571D01*
X148873000Y-117164142D01*
X148800428Y-117200428D01*
X149489857Y-116982714D02*
X149961571Y-116982714D01*
X149707571Y-117273000D01*
X149816428Y-117273000D01*
X149889000Y-117309285D01*
X149925285Y-117345571D01*
X149961571Y-117418142D01*
X149961571Y-117599571D01*
X149925285Y-117672142D01*
X149889000Y-117708428D01*
X149816428Y-117744714D01*
X149598714Y-117744714D01*
X149526142Y-117708428D01*
X149489857Y-117672142D01*
D11*
%TO.C,U6*%
X147032714Y-88080571D02*
X147649571Y-88080571D01*
X147722142Y-88044285D01*
X147758428Y-88008000D01*
X147794714Y-87935428D01*
X147794714Y-87790285D01*
X147758428Y-87717714D01*
X147722142Y-87681428D01*
X147649571Y-87645142D01*
X147032714Y-87645142D01*
X147032714Y-86955714D02*
X147032714Y-87100857D01*
X147069000Y-87173428D01*
X147105285Y-87209714D01*
X147214142Y-87282285D01*
X147359285Y-87318571D01*
X147649571Y-87318571D01*
X147722142Y-87282285D01*
X147758428Y-87246000D01*
X147794714Y-87173428D01*
X147794714Y-87028285D01*
X147758428Y-86955714D01*
X147722142Y-86919428D01*
X147649571Y-86883142D01*
X147468142Y-86883142D01*
X147395571Y-86919428D01*
X147359285Y-86955714D01*
X147323000Y-87028285D01*
X147323000Y-87173428D01*
X147359285Y-87246000D01*
X147395571Y-87282285D01*
X147468142Y-87318571D01*
D10*
%TO.C,R4*%
X114483000Y-125784714D02*
X114229000Y-125421857D01*
X114047571Y-125784714D02*
X114047571Y-125022714D01*
X114337857Y-125022714D01*
X114410428Y-125059000D01*
X114446714Y-125095285D01*
X114483000Y-125167857D01*
X114483000Y-125276714D01*
X114446714Y-125349285D01*
X114410428Y-125385571D01*
X114337857Y-125421857D01*
X114047571Y-125421857D01*
X115136142Y-125276714D02*
X115136142Y-125784714D01*
X114954714Y-124986428D02*
X114773285Y-125530714D01*
X115245000Y-125530714D01*
%TO.C,R10*%
X138500142Y-108274714D02*
X138246142Y-107911857D01*
X138064714Y-108274714D02*
X138064714Y-107512714D01*
X138355000Y-107512714D01*
X138427571Y-107549000D01*
X138463857Y-107585285D01*
X138500142Y-107657857D01*
X138500142Y-107766714D01*
X138463857Y-107839285D01*
X138427571Y-107875571D01*
X138355000Y-107911857D01*
X138064714Y-107911857D01*
X139225857Y-108274714D02*
X138790428Y-108274714D01*
X139008142Y-108274714D02*
X139008142Y-107512714D01*
X138935571Y-107621571D01*
X138863000Y-107694142D01*
X138790428Y-107730428D01*
X139697571Y-107512714D02*
X139770142Y-107512714D01*
X139842714Y-107549000D01*
X139879000Y-107585285D01*
X139915285Y-107657857D01*
X139951571Y-107803000D01*
X139951571Y-107984428D01*
X139915285Y-108129571D01*
X139879000Y-108202142D01*
X139842714Y-108238428D01*
X139770142Y-108274714D01*
X139697571Y-108274714D01*
X139625000Y-108238428D01*
X139588714Y-108202142D01*
X139552428Y-108129571D01*
X139516142Y-107984428D01*
X139516142Y-107803000D01*
X139552428Y-107657857D01*
X139588714Y-107585285D01*
X139625000Y-107549000D01*
X139697571Y-107512714D01*
%TO.C,C21*%
X165182142Y-122209857D02*
X165218428Y-122246142D01*
X165254714Y-122355000D01*
X165254714Y-122427571D01*
X165218428Y-122536428D01*
X165145857Y-122609000D01*
X165073285Y-122645285D01*
X164928142Y-122681571D01*
X164819285Y-122681571D01*
X164674142Y-122645285D01*
X164601571Y-122609000D01*
X164529000Y-122536428D01*
X164492714Y-122427571D01*
X164492714Y-122355000D01*
X164529000Y-122246142D01*
X164565285Y-122209857D01*
X164565285Y-121919571D02*
X164529000Y-121883285D01*
X164492714Y-121810714D01*
X164492714Y-121629285D01*
X164529000Y-121556714D01*
X164565285Y-121520428D01*
X164637857Y-121484142D01*
X164710428Y-121484142D01*
X164819285Y-121520428D01*
X165254714Y-121955857D01*
X165254714Y-121484142D01*
X165254714Y-120758428D02*
X165254714Y-121193857D01*
X165254714Y-120976142D02*
X164492714Y-120976142D01*
X164601571Y-121048714D01*
X164674142Y-121121285D01*
X164710428Y-121193857D01*
%TO.C,X1*%
X144643142Y-121222714D02*
X145151142Y-121984714D01*
X145151142Y-121222714D02*
X144643142Y-121984714D01*
X145840571Y-121984714D02*
X145405142Y-121984714D01*
X145622857Y-121984714D02*
X145622857Y-121222714D01*
X145550285Y-121331571D01*
X145477714Y-121404142D01*
X145405142Y-121440428D01*
%TO.C,T1*%
X133182714Y-116830571D02*
X133182714Y-116395142D01*
X133944714Y-116612857D02*
X133182714Y-116612857D01*
X133944714Y-115742000D02*
X133944714Y-116177428D01*
X133944714Y-115959714D02*
X133182714Y-115959714D01*
X133291571Y-116032285D01*
X133364142Y-116104857D01*
X133400428Y-116177428D01*
%TO.C,R6*%
X123964714Y-123857000D02*
X123601857Y-124111000D01*
X123964714Y-124292428D02*
X123202714Y-124292428D01*
X123202714Y-124002142D01*
X123239000Y-123929571D01*
X123275285Y-123893285D01*
X123347857Y-123857000D01*
X123456714Y-123857000D01*
X123529285Y-123893285D01*
X123565571Y-123929571D01*
X123601857Y-124002142D01*
X123601857Y-124292428D01*
X123202714Y-123203857D02*
X123202714Y-123349000D01*
X123239000Y-123421571D01*
X123275285Y-123457857D01*
X123384142Y-123530428D01*
X123529285Y-123566714D01*
X123819571Y-123566714D01*
X123892142Y-123530428D01*
X123928428Y-123494142D01*
X123964714Y-123421571D01*
X123964714Y-123276428D01*
X123928428Y-123203857D01*
X123892142Y-123167571D01*
X123819571Y-123131285D01*
X123638142Y-123131285D01*
X123565571Y-123167571D01*
X123529285Y-123203857D01*
X123493000Y-123276428D01*
X123493000Y-123421571D01*
X123529285Y-123494142D01*
X123565571Y-123530428D01*
X123638142Y-123566714D01*
%TO.C,L2*%
X176690325Y-116344714D02*
X176327468Y-116344714D01*
X176327468Y-115582714D01*
X176908040Y-115655285D02*
X176944325Y-115619000D01*
X177016897Y-115582714D01*
X177198325Y-115582714D01*
X177270897Y-115619000D01*
X177307182Y-115655285D01*
X177343468Y-115727857D01*
X177343468Y-115800428D01*
X177307182Y-115909285D01*
X176871754Y-116344714D01*
X177343468Y-116344714D01*
%TO.C,C30*%
X142772142Y-89239857D02*
X142808428Y-89276142D01*
X142844714Y-89385000D01*
X142844714Y-89457571D01*
X142808428Y-89566428D01*
X142735857Y-89639000D01*
X142663285Y-89675285D01*
X142518142Y-89711571D01*
X142409285Y-89711571D01*
X142264142Y-89675285D01*
X142191571Y-89639000D01*
X142119000Y-89566428D01*
X142082714Y-89457571D01*
X142082714Y-89385000D01*
X142119000Y-89276142D01*
X142155285Y-89239857D01*
X142082714Y-88985857D02*
X142082714Y-88514142D01*
X142373000Y-88768142D01*
X142373000Y-88659285D01*
X142409285Y-88586714D01*
X142445571Y-88550428D01*
X142518142Y-88514142D01*
X142699571Y-88514142D01*
X142772142Y-88550428D01*
X142808428Y-88586714D01*
X142844714Y-88659285D01*
X142844714Y-88877000D01*
X142808428Y-88949571D01*
X142772142Y-88985857D01*
X142082714Y-88042428D02*
X142082714Y-87969857D01*
X142119000Y-87897285D01*
X142155285Y-87861000D01*
X142227857Y-87824714D01*
X142373000Y-87788428D01*
X142554428Y-87788428D01*
X142699571Y-87824714D01*
X142772142Y-87861000D01*
X142808428Y-87897285D01*
X142844714Y-87969857D01*
X142844714Y-88042428D01*
X142808428Y-88115000D01*
X142772142Y-88151285D01*
X142699571Y-88187571D01*
X142554428Y-88223857D01*
X142373000Y-88223857D01*
X142227857Y-88187571D01*
X142155285Y-88151285D01*
X142119000Y-88115000D01*
X142082714Y-88042428D01*
%TO.C,C7*%
X136782142Y-121327000D02*
X136818428Y-121363285D01*
X136854714Y-121472142D01*
X136854714Y-121544714D01*
X136818428Y-121653571D01*
X136745857Y-121726142D01*
X136673285Y-121762428D01*
X136528142Y-121798714D01*
X136419285Y-121798714D01*
X136274142Y-121762428D01*
X136201571Y-121726142D01*
X136129000Y-121653571D01*
X136092714Y-121544714D01*
X136092714Y-121472142D01*
X136129000Y-121363285D01*
X136165285Y-121327000D01*
X136092714Y-121073000D02*
X136092714Y-120565000D01*
X136854714Y-120891571D01*
%TO.C,J1*%
X111646000Y-106782714D02*
X111646000Y-107327000D01*
X111609714Y-107435857D01*
X111537142Y-107508428D01*
X111428285Y-107544714D01*
X111355714Y-107544714D01*
X112408000Y-107544714D02*
X111972571Y-107544714D01*
X112190285Y-107544714D02*
X112190285Y-106782714D01*
X112117714Y-106891571D01*
X112045142Y-106964142D01*
X111972571Y-107000428D01*
D13*
%TO.C,X2*%
X168600000Y-123000000D02*
X169400000Y-123000000D01*
X170600000Y-123950000D02*
X170600000Y-124550000D01*
X168600000Y-125500000D02*
X169400000Y-125500000D01*
X167400000Y-124550000D02*
X167400000Y-123950000D01*
D10*
%TO.C,C22*%
X173050000Y-111385000D02*
X172450000Y-111385000D01*
X172450000Y-110115000D02*
X173050000Y-110115000D01*
%TO.C,C2*%
X128700000Y-108115000D02*
X129300000Y-108115000D01*
X129300000Y-109385000D02*
X128700000Y-109385000D01*
%TO.C,C19*%
X174700000Y-113865000D02*
X175300000Y-113865000D01*
X175300000Y-115135000D02*
X174700000Y-115135000D01*
%TO.C,R11*%
X134115000Y-123550000D02*
X134115000Y-122950000D01*
X135385000Y-122950000D02*
X135385000Y-123550000D01*
D14*
%TO.C,J2*%
X130750000Y-84725000D02*
X130750000Y-103775000D01*
X130750000Y-84725000D02*
X123750000Y-84725000D01*
X123750000Y-84725000D02*
X123750000Y-103775000D01*
X123750000Y-103775000D02*
X130750000Y-103775000D01*
D10*
%TO.C,C8*%
X140615000Y-124550000D02*
X140615000Y-123950000D01*
X141885000Y-123950000D02*
X141885000Y-124550000D01*
%TO.C,C20*%
X162115000Y-120800000D02*
X162115000Y-120200000D01*
X163385000Y-120200000D02*
X163385000Y-120800000D01*
D12*
%TO.C,SW1*%
X185550000Y-109350000D02*
X185550000Y-108250000D01*
X189100000Y-110850000D02*
X189100000Y-109150000D01*
X185550000Y-111750000D02*
X185550000Y-110650000D01*
X188450000Y-111750000D02*
X188450000Y-108250000D01*
D10*
%TO.C,L3*%
X176450000Y-118935000D02*
X175850000Y-118935000D01*
X175850000Y-117665000D02*
X176450000Y-117665000D01*
%TO.C,R3*%
X116700000Y-124815000D02*
X117300000Y-124815000D01*
X117300000Y-126085000D02*
X116700000Y-126085000D01*
%TO.C,R5*%
X121465000Y-109700000D02*
X121465000Y-109100000D01*
X122735000Y-109100000D02*
X122735000Y-109700000D01*
%TO.C,C31*%
X143550000Y-95135000D02*
X142950000Y-95135000D01*
X142950000Y-93865000D02*
X143550000Y-93865000D01*
D15*
%TO.C,U5*%
X136600000Y-95575000D02*
X135400000Y-95575000D01*
X136600000Y-94975000D02*
X136000000Y-95575000D01*
X135400000Y-92925000D02*
X136600000Y-92925000D01*
D10*
%TO.C,R2*%
X125200000Y-123115000D02*
X125800000Y-123115000D01*
X125800000Y-124385000D02*
X125200000Y-124385000D01*
%TO.C,C12*%
X165365000Y-124550000D02*
X165365000Y-123950000D01*
X166635000Y-123950000D02*
X166635000Y-124550000D01*
%TO.C,R19*%
X167145000Y-110650000D02*
X167145000Y-111250000D01*
X165875000Y-111250000D02*
X165875000Y-110650000D01*
D11*
%TO.C,SW2*%
X153752600Y-125509900D02*
X153092200Y-125509900D01*
X153752600Y-119490100D02*
X153092200Y-119490100D01*
X150247400Y-125509900D02*
X150907800Y-125509900D01*
X150247400Y-119490100D02*
X150907800Y-119490100D01*
X153752600Y-119490100D02*
X153752600Y-125509900D01*
X150247400Y-119490100D02*
X150247400Y-125509900D01*
D15*
%TO.C,U4*%
X135400000Y-89175000D02*
X136600000Y-89175000D01*
X136600000Y-91825000D02*
X135400000Y-91825000D01*
X136600000Y-91225000D02*
X136000000Y-91825000D01*
D10*
%TO.C,R16*%
X173950000Y-123865000D02*
X174550000Y-123865000D01*
X174550000Y-125135000D02*
X173950000Y-125135000D01*
%TO.C,U1*%
X138272800Y-114218000D02*
X138120400Y-114218000D01*
X142032000Y-118282000D02*
X142032000Y-117977200D01*
X137968000Y-118282000D02*
X137968000Y-117977200D01*
X142032000Y-114218000D02*
X141727200Y-114218000D01*
X142032000Y-114218000D02*
X142032000Y-114522800D01*
X137968000Y-118282000D02*
X138272800Y-118282000D01*
X138120400Y-114218000D02*
X137968000Y-114370400D01*
X137968000Y-114370400D02*
X137968000Y-114522800D01*
X142032000Y-118282000D02*
X141727200Y-118282000D01*
%TO.C,C15*%
X174550000Y-123635000D02*
X173950000Y-123635000D01*
X173950000Y-122365000D02*
X174550000Y-122365000D01*
D13*
%TO.C,L4*%
X146000000Y-90250000D02*
X144000000Y-90250000D01*
X146500000Y-93250000D02*
X145000000Y-93250000D01*
X147000000Y-91250000D02*
X147000000Y-92750000D01*
X147000000Y-92750000D02*
X146500000Y-93250000D01*
X144000000Y-90250000D02*
X144000000Y-92250000D01*
D10*
%TO.C,L1*%
X132700000Y-107865000D02*
X133300000Y-107865000D01*
X133300000Y-109135000D02*
X132700000Y-109135000D01*
%TO.C,R18*%
X146450000Y-114365000D02*
X147050000Y-114365000D01*
X147050000Y-115635000D02*
X146450000Y-115635000D01*
D15*
%TO.C,Q1*%
X132521000Y-125954000D02*
X131759000Y-125954000D01*
X131759000Y-122906000D02*
X132521000Y-122906000D01*
X132521000Y-122906000D02*
X132521000Y-125954000D01*
X131759000Y-125954000D02*
X131759000Y-122906000D01*
D10*
%TO.C,C5*%
X134765000Y-112750000D02*
X134765000Y-112150000D01*
X136035000Y-112150000D02*
X136035000Y-112750000D01*
%TO.C,C27*%
X140135000Y-94700000D02*
X140135000Y-95300000D01*
X138865000Y-95300000D02*
X138865000Y-94700000D01*
D15*
%TO.C,U3*%
X156833000Y-118405000D02*
X162167000Y-118405000D01*
X156833000Y-118405000D02*
X156833000Y-114595000D01*
X162167000Y-114595000D02*
X156833000Y-114595000D01*
X162167000Y-117008000D02*
X161659000Y-117008000D01*
X161659000Y-117008000D02*
X161659000Y-115992000D01*
X162167000Y-118405000D02*
X162167000Y-114722000D01*
X161659000Y-115992000D02*
X162167000Y-115992000D01*
X162167000Y-114722000D02*
X162167000Y-114595000D01*
D10*
%TO.C,C18*%
X175300000Y-113635000D02*
X174700000Y-113635000D01*
X174700000Y-112365000D02*
X175300000Y-112365000D01*
D12*
%TO.C,C28*%
X134525000Y-99250000D02*
X134525000Y-101250000D01*
X137475000Y-101250000D02*
X137475000Y-99250000D01*
D10*
%TO.C,C3*%
X136365000Y-113550000D02*
X136365000Y-112950000D01*
X137635000Y-112950000D02*
X137635000Y-113550000D01*
%TO.C,R1*%
X125200000Y-108115000D02*
X125800000Y-108115000D01*
X125800000Y-109385000D02*
X125200000Y-109385000D01*
%TO.C,R8*%
X137365000Y-120800000D02*
X137365000Y-120200000D01*
X138635000Y-120200000D02*
X138635000Y-120800000D01*
D16*
%TO.C,ohw_logo*%
X143868300Y-101965200D02*
X145112900Y-101965200D01*
X142776100Y-99425200D02*
X144223900Y-99425200D01*
X141887100Y-102117600D02*
X143106300Y-102117600D01*
X141785500Y-100593600D02*
X143030100Y-100593600D01*
X143080900Y-99272800D02*
X143919100Y-99272800D01*
X144122300Y-100923800D02*
X145849500Y-100923800D01*
X143893700Y-100517400D02*
X145189100Y-100517400D01*
X143995300Y-102295400D02*
X145341500Y-102295400D01*
X143969900Y-101406400D02*
X145214500Y-101406400D01*
X143919100Y-100542800D02*
X145265300Y-100542800D01*
X142623700Y-99501400D02*
X145290700Y-99501400D01*
X141683900Y-99653800D02*
X145290700Y-99653800D01*
X144071500Y-100771400D02*
X145824100Y-100771400D01*
X143969900Y-102244600D02*
X145290700Y-102244600D01*
X141963300Y-99247400D02*
X142242700Y-99247400D01*
X141912500Y-102828800D02*
X142242700Y-102828800D01*
X141175900Y-100847600D02*
X142903100Y-100847600D01*
X142826900Y-99399800D02*
X144147700Y-99399800D01*
X143334900Y-98688600D02*
X143588900Y-98688600D01*
X141404500Y-101355600D02*
X142979300Y-101355600D01*
X143131700Y-98917200D02*
X143868300Y-98917200D01*
X143893700Y-101482600D02*
X145189100Y-101482600D01*
X141709300Y-102371600D02*
X143030100Y-102371600D01*
X141887100Y-100339600D02*
X145112900Y-100339600D01*
X143893700Y-102016000D02*
X145138300Y-102016000D01*
X144528700Y-99374400D02*
X145163700Y-99374400D01*
X141810900Y-100568200D02*
X143055500Y-100568200D01*
X141937900Y-102879600D02*
X142191900Y-102879600D01*
X143817500Y-101838200D02*
X145062100Y-101838200D01*
X141175900Y-100822200D02*
X142903100Y-100822200D01*
X144096900Y-101203200D02*
X145824100Y-101203200D01*
X141201300Y-100695200D02*
X142953900Y-100695200D01*
X142674500Y-102625600D02*
X142928500Y-102625600D01*
X143157100Y-98841000D02*
X143842900Y-98841000D01*
X144630300Y-102651000D02*
X145189100Y-102651000D01*
X144122300Y-102651000D02*
X144274700Y-102651000D01*
X141836300Y-101558800D02*
X143207900Y-101558800D01*
X141785500Y-102244600D02*
X143055500Y-102244600D01*
X141810900Y-99806200D02*
X145189100Y-99806200D01*
X143106300Y-99145800D02*
X143893700Y-99145800D01*
X141963300Y-101863600D02*
X143207900Y-101863600D01*
X141658500Y-102473200D02*
X142979300Y-102473200D01*
X143157100Y-98764800D02*
X143842900Y-98764800D01*
X143944500Y-100568200D02*
X145417700Y-100568200D01*
X143131700Y-99018800D02*
X143868300Y-99018800D01*
X141175900Y-101203200D02*
X142903100Y-101203200D01*
X143792100Y-101762000D02*
X145087500Y-101762000D01*
X144579500Y-102600200D02*
X145239900Y-102600200D01*
X144452500Y-99425200D02*
X145214500Y-99425200D01*
X141760100Y-102600200D02*
X142953900Y-102600200D01*
X141887100Y-100314200D02*
X145112900Y-100314200D01*
X141836300Y-100441200D02*
X143233300Y-100441200D01*
X141937900Y-100238000D02*
X145062100Y-100238000D01*
X143080900Y-99196600D02*
X143893700Y-99196600D01*
X141810900Y-102219200D02*
X143080900Y-102219200D01*
X141912500Y-99984000D02*
X145062100Y-99984000D01*
X142674500Y-99476000D02*
X144325500Y-99476000D01*
X144122300Y-101101600D02*
X145849500Y-101101600D01*
X141988700Y-101990600D02*
X143157100Y-101990600D01*
X143741300Y-101635000D02*
X145138300Y-101635000D01*
X145036700Y-102981200D02*
X145087500Y-102981200D01*
X144071500Y-102524000D02*
X145290700Y-102524000D01*
X141912500Y-102066800D02*
X143131700Y-102066800D01*
X144046100Y-102397000D02*
X145392300Y-102397000D01*
X144122300Y-101152400D02*
X145849500Y-101152400D01*
X141963300Y-100034800D02*
X145011300Y-100034800D01*
X144096900Y-100847600D02*
X145824100Y-100847600D01*
X141836300Y-102168400D02*
X143106300Y-102168400D01*
X141658500Y-99603000D02*
X145316100Y-99603000D01*
X141887100Y-101736600D02*
X143258700Y-101736600D01*
X144122300Y-102600200D02*
X144376300Y-102600200D01*
X144731900Y-102752600D02*
X145214500Y-102752600D01*
X141836300Y-100492000D02*
X143157100Y-100492000D01*
X141861700Y-99349000D02*
X142395100Y-99349000D01*
X142725300Y-99450600D02*
X144274700Y-99450600D01*
X141175900Y-100720600D02*
X142953900Y-100720600D01*
X141912500Y-99958600D02*
X145087500Y-99958600D01*
X141556900Y-101381000D02*
X143004700Y-101381000D01*
X144071500Y-101279400D02*
X145798700Y-101279400D01*
X141810900Y-101533400D02*
X143157100Y-101533400D01*
X141836300Y-99374400D02*
X142420500Y-99374400D01*
X143741300Y-101609600D02*
X145163700Y-101609600D01*
X143131700Y-98942600D02*
X143868300Y-98942600D01*
X143817500Y-101863600D02*
X145036700Y-101863600D01*
X141937900Y-101838200D02*
X143207900Y-101838200D01*
X141963300Y-100060200D02*
X145011300Y-100060200D01*
X144630300Y-99298200D02*
X145087500Y-99298200D01*
X141836300Y-102193800D02*
X143080900Y-102193800D01*
X143080900Y-99298200D02*
X143919100Y-99298200D01*
X141734700Y-99730000D02*
X145239900Y-99730000D01*
X143995300Y-100619000D02*
X145697100Y-100619000D01*
X144757300Y-102778000D02*
X145214500Y-102778000D01*
X141175900Y-100796800D02*
X142903100Y-100796800D01*
X144096900Y-102574800D02*
X144452500Y-102574800D01*
X141658500Y-102447800D02*
X143004700Y-102447800D01*
X141709300Y-99501400D02*
X142598300Y-99501400D01*
X142903100Y-99374400D02*
X144096900Y-99374400D01*
X144655700Y-102701800D02*
X145214500Y-102701800D01*
X141861700Y-101685800D02*
X143258700Y-101685800D01*
X141963300Y-100161800D02*
X145036700Y-100161800D01*
X142014100Y-99222000D02*
X142217300Y-99222000D01*
X144122300Y-100873000D02*
X145824100Y-100873000D01*
X141912500Y-102752600D02*
X142344300Y-102752600D01*
X143766700Y-101711200D02*
X145112900Y-101711200D01*
X143868300Y-101939800D02*
X145087500Y-101939800D01*
X141683900Y-101406400D02*
X143030100Y-101406400D01*
X141150500Y-101050800D02*
X142877700Y-101050800D01*
X141937900Y-101812800D02*
X143207900Y-101812800D01*
X142979300Y-99349000D02*
X144020700Y-99349000D01*
X144046100Y-101304800D02*
X145646300Y-101304800D01*
X143106300Y-99171200D02*
X143893700Y-99171200D01*
X141836300Y-102676400D02*
X142445900Y-102676400D01*
X143157100Y-98866400D02*
X143842900Y-98866400D01*
X142014100Y-102955800D02*
X142166500Y-102955800D01*
X143766700Y-101736600D02*
X145112900Y-101736600D01*
X141988700Y-101914400D02*
X143182500Y-101914400D01*
X144833500Y-99171200D02*
X144935100Y-99171200D01*
X144046100Y-102447800D02*
X145366900Y-102447800D01*
X141709300Y-99679200D02*
X145290700Y-99679200D01*
X141810900Y-100542800D02*
X143080900Y-100542800D01*
X143690500Y-100415800D02*
X145138300Y-100415800D01*
X142064900Y-103006600D02*
X142141100Y-103006600D01*
X144681100Y-99272800D02*
X145062100Y-99272800D01*
X143919100Y-102117600D02*
X145214500Y-102117600D01*
X144122300Y-101076200D02*
X145849500Y-101076200D01*
X141887100Y-99933200D02*
X145087500Y-99933200D01*
X143080900Y-99247400D02*
X143919100Y-99247400D01*
X144020700Y-102346200D02*
X145366900Y-102346200D01*
X141150500Y-101127000D02*
X142877700Y-101127000D01*
X141912500Y-101762000D02*
X143233300Y-101762000D01*
X143944500Y-102193800D02*
X145265300Y-102193800D01*
X141887100Y-101711200D02*
X143258700Y-101711200D01*
X143842900Y-100492000D02*
X145163700Y-100492000D01*
X144147700Y-102701800D02*
X144173100Y-102701800D01*
X141277500Y-101330200D02*
X142979300Y-101330200D01*
X141785500Y-99780800D02*
X145214500Y-99780800D01*
X141912500Y-102778000D02*
X142293500Y-102778000D01*
X144935100Y-102879600D02*
X145163700Y-102879600D01*
X141861700Y-99907800D02*
X145112900Y-99907800D01*
X144858900Y-102828800D02*
X145189100Y-102828800D01*
X144808100Y-102803400D02*
X145214500Y-102803400D01*
X143868300Y-101990600D02*
X145138300Y-101990600D01*
X144122300Y-101127000D02*
X145849500Y-101127000D01*
X141937900Y-99272800D02*
X142293500Y-99272800D01*
X141633100Y-100619000D02*
X143004700Y-100619000D01*
X141963300Y-100187200D02*
X145036700Y-100187200D01*
X144046100Y-101330200D02*
X145493900Y-101330200D01*
X143944500Y-102143000D02*
X145239900Y-102143000D01*
X143995300Y-102270000D02*
X145316100Y-102270000D01*
X141810900Y-101482600D02*
X143106300Y-101482600D01*
X141760100Y-99755400D02*
X145214500Y-99755400D01*
X141760100Y-102295400D02*
X143055500Y-102295400D01*
X144960500Y-102905000D02*
X145163700Y-102905000D01*
X143157100Y-98815600D02*
X143842900Y-98815600D01*
X141683900Y-102524000D02*
X142979300Y-102524000D01*
X141963300Y-102905000D02*
X142191900Y-102905000D01*
X141861700Y-102701800D02*
X142420500Y-102701800D01*
X143766700Y-100441200D02*
X145163700Y-100441200D01*
X144985900Y-102930400D02*
X145138300Y-102930400D01*
X142750700Y-102651000D02*
X142928500Y-102651000D01*
X141175900Y-100898400D02*
X142877700Y-100898400D01*
X144757300Y-99222000D02*
X144985900Y-99222000D01*
X141810900Y-100517400D02*
X143106300Y-100517400D01*
X143157100Y-98790200D02*
X143842900Y-98790200D01*
X144706500Y-99247400D02*
X145036700Y-99247400D01*
X143842900Y-101889000D02*
X145062100Y-101889000D01*
X141785500Y-102270000D02*
X143055500Y-102270000D01*
X141836300Y-100466600D02*
X143182500Y-100466600D01*
X143969900Y-102219200D02*
X145290700Y-102219200D01*
X143131700Y-98993400D02*
X143868300Y-98993400D01*
X143919100Y-102092200D02*
X145189100Y-102092200D01*
X143055500Y-99323600D02*
X143919100Y-99323600D01*
X143106300Y-99044200D02*
X143868300Y-99044200D01*
X144604900Y-99323600D02*
X145112900Y-99323600D01*
X143995300Y-102320800D02*
X145366900Y-102320800D01*
X143106300Y-99120400D02*
X143893700Y-99120400D01*
X141912500Y-100288800D02*
X145087500Y-100288800D01*
X141175900Y-101228600D02*
X142928500Y-101228600D01*
X143614300Y-100390400D02*
X145138300Y-100390400D01*
X141861700Y-100415800D02*
X143309500Y-100415800D01*
X143944500Y-102168400D02*
X145239900Y-102168400D01*
X141937900Y-102041400D02*
X143131700Y-102041400D01*
X141175900Y-101177800D02*
X142903100Y-101177800D01*
X143995300Y-101381000D02*
X145214500Y-101381000D01*
X141988700Y-100111000D02*
X144985900Y-100111000D01*
X141861700Y-99882400D02*
X145138300Y-99882400D01*
X144376300Y-99476000D02*
X145265300Y-99476000D01*
X143893700Y-102066800D02*
X145189100Y-102066800D01*
X144046100Y-100720600D02*
X145824100Y-100720600D01*
X144096900Y-101177800D02*
X145849500Y-101177800D01*
X141887100Y-99323600D02*
X142344300Y-99323600D01*
X141328300Y-100669800D02*
X142979300Y-100669800D01*
X145011300Y-102955800D02*
X145112900Y-102955800D01*
X144096900Y-102549400D02*
X145290700Y-102549400D01*
X144071500Y-102473200D02*
X145341500Y-102473200D01*
X144122300Y-100949200D02*
X145849500Y-100949200D01*
X141683900Y-99552200D02*
X145316100Y-99552200D01*
X141683900Y-102397000D02*
X143004700Y-102397000D01*
X144122300Y-100898400D02*
X145824100Y-100898400D01*
X142852300Y-102701800D02*
X142903100Y-102701800D01*
X141709300Y-102549400D02*
X142953900Y-102549400D01*
X141734700Y-99476000D02*
X142572900Y-99476000D01*
X141912500Y-99298200D02*
X142318900Y-99298200D01*
X141658500Y-99577600D02*
X145316100Y-99577600D01*
X144782700Y-99196600D02*
X144960500Y-99196600D01*
X144046100Y-100695200D02*
X145824100Y-100695200D01*
X144122300Y-101050800D02*
X145849500Y-101050800D01*
X141175900Y-101254000D02*
X142928500Y-101254000D01*
X143817500Y-100466600D02*
X145163700Y-100466600D01*
X144046100Y-102422400D02*
X145392300Y-102422400D01*
X141988700Y-101965200D02*
X143157100Y-101965200D01*
X142039500Y-99196600D02*
X142166500Y-99196600D01*
X144096900Y-101228600D02*
X145824100Y-101228600D01*
X141937900Y-100212600D02*
X145062100Y-100212600D01*
X141175900Y-101279400D02*
X142928500Y-101279400D01*
X141861700Y-102143000D02*
X143106300Y-102143000D01*
X144655700Y-102676400D02*
X145214500Y-102676400D01*
X141912500Y-102092200D02*
X143131700Y-102092200D01*
X141861700Y-100365000D02*
X145112900Y-100365000D01*
X144071500Y-100746000D02*
X145824100Y-100746000D01*
X141810900Y-99399800D02*
X142471300Y-99399800D01*
X141836300Y-101609600D02*
X143284100Y-101609600D01*
X141988700Y-100085600D02*
X144985900Y-100085600D01*
X143842900Y-101533400D02*
X145189100Y-101533400D01*
X144909700Y-102854200D02*
X145189100Y-102854200D01*
X141175900Y-101304800D02*
X142953900Y-101304800D01*
X141150500Y-101101600D02*
X142877700Y-101101600D01*
X141836300Y-101584200D02*
X143258700Y-101584200D01*
X144122300Y-100974600D02*
X145849500Y-100974600D01*
X144122300Y-102625600D02*
X144325500Y-102625600D01*
X143131700Y-98968000D02*
X143868300Y-98968000D01*
X143995300Y-100644400D02*
X145798700Y-100644400D01*
X143157100Y-98891800D02*
X143842900Y-98891800D01*
X141912500Y-100263400D02*
X145087500Y-100263400D01*
X144147700Y-102676400D02*
X144223900Y-102676400D01*
X141836300Y-99857000D02*
X145163700Y-99857000D01*
X141734700Y-102574800D02*
X142953900Y-102574800D01*
X141658500Y-102422400D02*
X143004700Y-102422400D01*
X144427100Y-99450600D02*
X145239900Y-99450600D01*
X141175900Y-100746000D02*
X142928500Y-100746000D01*
X141175900Y-100771400D02*
X142928500Y-100771400D01*
X141988700Y-101939800D02*
X143182500Y-101939800D01*
X141150500Y-100949200D02*
X142877700Y-100949200D01*
X142801500Y-102676400D02*
X142903100Y-102676400D01*
X143741300Y-101660400D02*
X145138300Y-101660400D01*
X141963300Y-101889000D02*
X143182500Y-101889000D01*
X143080900Y-99222000D02*
X143893700Y-99222000D01*
X141150500Y-101076200D02*
X142877700Y-101076200D01*
X143969900Y-100593600D02*
X145544700Y-100593600D01*
X141810900Y-102651000D02*
X142496700Y-102651000D01*
X141480700Y-100644400D02*
X143004700Y-100644400D01*
X144604900Y-102625600D02*
X145214500Y-102625600D01*
X141709300Y-102346200D02*
X143030100Y-102346200D01*
X141785500Y-102625600D02*
X142547500Y-102625600D01*
X141785500Y-99425200D02*
X142496700Y-99425200D01*
X141861700Y-101635000D02*
X143284100Y-101635000D01*
X143868300Y-101508000D02*
X145189100Y-101508000D01*
X141150500Y-101152400D02*
X142903100Y-101152400D01*
X143944500Y-101457200D02*
X145189100Y-101457200D01*
X141734700Y-102320800D02*
X143030100Y-102320800D01*
X144477900Y-99399800D02*
X145189100Y-99399800D01*
X141861700Y-100390400D02*
X143385700Y-100390400D01*
X141658500Y-102498600D02*
X142979300Y-102498600D01*
X143182500Y-98714000D02*
X143817500Y-98714000D01*
X143842900Y-101914400D02*
X145062100Y-101914400D01*
X141810900Y-101457200D02*
X143055500Y-101457200D01*
X141912500Y-101787400D02*
X143233300Y-101787400D01*
X141734700Y-99704600D02*
X145265300Y-99704600D01*
X144706500Y-102727200D02*
X145214500Y-102727200D01*
X141175900Y-100873000D02*
X142903100Y-100873000D01*
X144503300Y-102574800D02*
X145265300Y-102574800D01*
X144020700Y-102371600D02*
X145392300Y-102371600D01*
X143106300Y-99069600D02*
X143893700Y-99069600D01*
X143969900Y-101431800D02*
X145214500Y-101431800D01*
X141683900Y-99526800D02*
X145290700Y-99526800D01*
X144071500Y-102498600D02*
X145316100Y-102498600D01*
X141861700Y-101660400D02*
X143284100Y-101660400D01*
X144071500Y-101254000D02*
X145824100Y-101254000D01*
X141937900Y-100009400D02*
X145036700Y-100009400D01*
X141988700Y-100136400D02*
X145011300Y-100136400D01*
X143741300Y-101584200D02*
X145163700Y-101584200D01*
X142064900Y-99171200D02*
X142141100Y-99171200D01*
X141760100Y-99450600D02*
X142522100Y-99450600D01*
X143792100Y-101787400D02*
X145087500Y-101787400D01*
X144122300Y-101025400D02*
X145849500Y-101025400D01*
X141150500Y-100974600D02*
X142877700Y-100974600D01*
X141988700Y-102930400D02*
X142166500Y-102930400D01*
X141683900Y-99628400D02*
X145316100Y-99628400D01*
X141810900Y-99831600D02*
X145163700Y-99831600D01*
X141810900Y-101508000D02*
X143131700Y-101508000D01*
X143182500Y-98739400D02*
X143817500Y-98739400D01*
X144096900Y-100822200D02*
X145824100Y-100822200D01*
X143106300Y-99095000D02*
X143893700Y-99095000D01*
X144020700Y-100669800D02*
X145798700Y-100669800D01*
X141785500Y-101431800D02*
X143055500Y-101431800D01*
X141912500Y-102803400D02*
X142268100Y-102803400D01*
X141937900Y-102854200D02*
X142217300Y-102854200D01*
X143766700Y-101685800D02*
X145112900Y-101685800D01*
X143893700Y-102041400D02*
X145163700Y-102041400D01*
X141150500Y-101000000D02*
X142877700Y-101000000D01*
X143792100Y-101558800D02*
X145163700Y-101558800D01*
X142039500Y-102981200D02*
X142141100Y-102981200D01*
X144122300Y-101000000D02*
X145849500Y-101000000D01*
X141887100Y-102727200D02*
X142369700Y-102727200D01*
X144554100Y-99349000D02*
X145138300Y-99349000D01*
X141150500Y-101025400D02*
X142877700Y-101025400D01*
X144096900Y-100796800D02*
X145824100Y-100796800D01*
X144020700Y-101355600D02*
X145316100Y-101355600D01*
X141175900Y-100923800D02*
X142877700Y-100923800D01*
X143817500Y-101812800D02*
X145062100Y-101812800D01*
X141963300Y-102016000D02*
X143157100Y-102016000D01*
D10*
%TO.C,C29*%
X145200000Y-83865000D02*
X145800000Y-83865000D01*
X145800000Y-85135000D02*
X145200000Y-85135000D01*
%TO.C,C14*%
X173950000Y-120865000D02*
X174550000Y-120865000D01*
X174550000Y-122135000D02*
X173950000Y-122135000D01*
%TO.C,R7*%
X140635000Y-120950000D02*
X140635000Y-121550000D01*
X139365000Y-121550000D02*
X139365000Y-120950000D01*
D12*
%TO.C,C25*%
X136250000Y-88225000D02*
X138250000Y-88225000D01*
X138250000Y-85275000D02*
X136250000Y-85275000D01*
D10*
%TO.C,C1*%
X128700000Y-123115000D02*
X129300000Y-123115000D01*
X129300000Y-124385000D02*
X128700000Y-124385000D01*
%TO.C,C6*%
X133420000Y-111012000D02*
X132580000Y-111012000D01*
X132580000Y-109488000D02*
X133420000Y-109488000D01*
%TO.C,C9*%
X145300000Y-117885000D02*
X144700000Y-117885000D01*
X144700000Y-116615000D02*
X145300000Y-116615000D01*
%TO.C,C26*%
X140135000Y-90950000D02*
X140135000Y-91550000D01*
X138865000Y-91550000D02*
X138865000Y-90950000D01*
%TO.C,C11*%
X172635000Y-123950000D02*
X172635000Y-124550000D01*
X171365000Y-124550000D02*
X171365000Y-123950000D01*
%TO.C,R9*%
X143865000Y-114550000D02*
X143865000Y-113950000D01*
X145135000Y-113950000D02*
X145135000Y-114550000D01*
%TO.C,R12*%
X137300000Y-126135000D02*
X136700000Y-126135000D01*
X136700000Y-124865000D02*
X137300000Y-124865000D01*
%TO.C,C23*%
X184135000Y-109700000D02*
X184135000Y-110300000D01*
X182865000Y-110300000D02*
X182865000Y-109700000D01*
%TO.C,U2*%
X171500000Y-113950000D02*
X171500000Y-113500000D01*
X171500000Y-113500000D02*
X171050000Y-113500000D01*
X165500000Y-119050000D02*
X165500000Y-119500000D01*
X165500000Y-113500000D02*
X165500000Y-113950000D01*
X171250000Y-119500000D02*
X171050000Y-119500000D01*
X171500000Y-119050000D02*
X171500000Y-119250000D01*
X165500000Y-119500000D02*
X165950000Y-119500000D01*
X165950000Y-113500000D02*
X165500000Y-113500000D01*
X171750000Y-119500000D02*
G75*
G03*
X171750000Y-119500000I-250000J0D01*
G01*
%TO.C,C4*%
X136670000Y-110012000D02*
X135830000Y-110012000D01*
X135830000Y-108488000D02*
X136670000Y-108488000D01*
%TO.C,R17*%
X149300000Y-121135000D02*
X148700000Y-121135000D01*
X148700000Y-119865000D02*
X149300000Y-119865000D01*
%TO.C,R13*%
X149300000Y-119385000D02*
X148700000Y-119385000D01*
X148700000Y-118115000D02*
X149300000Y-118115000D01*
%TO.C,C13*%
X173385000Y-116640000D02*
X173385000Y-117240000D01*
X172115000Y-117240000D02*
X172115000Y-116640000D01*
D15*
%TO.C,U6*%
X146825000Y-86900000D02*
X146825000Y-88100000D01*
X144175000Y-88100000D02*
X144175000Y-86900000D01*
X146225000Y-86900000D02*
X146825000Y-87500000D01*
D10*
%TO.C,R4*%
X111450000Y-124815000D02*
X112050000Y-124815000D01*
X112050000Y-126085000D02*
X111450000Y-126085000D01*
%TO.C,R10*%
X140300000Y-109885000D02*
X139700000Y-109885000D01*
X139700000Y-108615000D02*
X140300000Y-108615000D01*
%TO.C,C21*%
X164885000Y-119200000D02*
X164885000Y-119800000D01*
X163615000Y-119800000D02*
X163615000Y-119200000D01*
%TO.C,X1*%
X147770000Y-123700000D02*
X147770000Y-124800000D01*
X146000000Y-125850000D02*
X144500000Y-125850000D01*
X142730000Y-124800000D02*
X142730000Y-123700000D01*
X144500000Y-122650000D02*
X146000000Y-122650000D01*
D15*
%TO.C,T1*%
X123820000Y-122727000D02*
X123820000Y-121500000D01*
X123820000Y-109773000D02*
X123820000Y-111000000D01*
X123820000Y-109773000D02*
X130680000Y-109773000D01*
X130680000Y-121500000D02*
X130680000Y-122727000D01*
X130680000Y-122727000D02*
X123820000Y-122727000D01*
X130680000Y-109773000D02*
X130680000Y-111000000D01*
D10*
%TO.C,R6*%
X122835000Y-122600000D02*
X122835000Y-123200000D01*
X121565000Y-123200000D02*
X121565000Y-122600000D01*
%TO.C,C17*%
X177415000Y-119360000D02*
X177415000Y-118760000D01*
X178685000Y-118760000D02*
X178685000Y-119360000D01*
%TO.C,L2*%
X175300000Y-116635000D02*
X174700000Y-116635000D01*
X174700000Y-115365000D02*
X175300000Y-115365000D01*
%TO.C,C30*%
X141865000Y-92300000D02*
X141865000Y-91700000D01*
X143135000Y-91700000D02*
X143135000Y-92300000D01*
%TO.C,C7*%
X135615000Y-123550000D02*
X135615000Y-122950000D01*
X136885000Y-122950000D02*
X136885000Y-123550000D01*
D16*
%TO.C,agilack-11.5*%
X149086300Y-109874300D02*
X149441900Y-109874300D01*
X152820100Y-109544100D02*
X153175700Y-109544100D01*
X157595300Y-109975900D02*
X157900100Y-109975900D01*
X158535100Y-109340900D02*
X158712900Y-109340900D01*
X156731700Y-109290100D02*
X157163500Y-109290100D01*
X155537900Y-110052100D02*
X155791900Y-110052100D01*
X154547300Y-110128300D02*
X154801300Y-110128300D01*
X151600900Y-110737900D02*
X153074100Y-110737900D01*
X153277300Y-110433100D02*
X153632900Y-110433100D01*
X157874700Y-110382300D02*
X158789100Y-110382300D01*
X155537900Y-109645700D02*
X155791900Y-109645700D01*
X151016700Y-109391700D02*
X151143700Y-109391700D01*
X152947100Y-109798100D02*
X153328100Y-109798100D01*
X155537900Y-110433100D02*
X156579300Y-110433100D01*
X152972500Y-109823500D02*
X153328100Y-109823500D01*
X154166300Y-109848900D02*
X154801300Y-109848900D01*
X155106100Y-110052100D02*
X155360100Y-110052100D01*
X151600900Y-110712500D02*
X153074100Y-110712500D01*
X159474900Y-109569500D02*
X159805100Y-109569500D01*
X157620700Y-109569500D02*
X157925500Y-109569500D01*
X153251900Y-110382300D02*
X153607500Y-110382300D01*
X156401500Y-110204500D02*
X156680900Y-110204500D01*
X158535100Y-110229900D02*
X158712900Y-110229900D01*
X149289500Y-108578900D02*
X150991300Y-108578900D01*
X154166300Y-109721900D02*
X154801300Y-109721900D01*
X148832300Y-109620300D02*
X149010100Y-109620300D01*
X159119300Y-110280700D02*
X159373300Y-110280700D01*
X149441900Y-110382300D02*
X151118300Y-110382300D01*
X151880300Y-110382300D02*
X153074100Y-110382300D01*
X157773100Y-109264700D02*
X158738300Y-109264700D01*
X153734500Y-110356900D02*
X154775900Y-110356900D01*
X155537900Y-109594900D02*
X155791900Y-109594900D01*
X157595300Y-109594900D02*
X157900100Y-109594900D01*
X157188900Y-110153700D02*
X157468300Y-110153700D01*
X154420300Y-109366300D02*
X154699700Y-109366300D01*
X151600900Y-110585500D02*
X153074100Y-110585500D01*
X155537900Y-109213900D02*
X155791900Y-109213900D01*
X155106100Y-110255300D02*
X155360100Y-110255300D01*
X157976300Y-109137700D02*
X158712900Y-109137700D01*
X157036500Y-109696500D02*
X157315900Y-109696500D01*
X150813500Y-109264700D02*
X151016700Y-109264700D01*
X155106100Y-109594900D02*
X155360100Y-109594900D01*
X156630100Y-109544100D02*
X156884100Y-109544100D01*
X151600900Y-110687100D02*
X153074100Y-110687100D01*
X149873700Y-109798100D02*
X150356300Y-109798100D01*
X159779700Y-109213900D02*
X160135300Y-109213900D01*
X149899100Y-109645700D02*
X150330900Y-109645700D01*
X149086300Y-109721900D02*
X149594300Y-109721900D01*
X156401500Y-110153700D02*
X156680900Y-110153700D01*
X157595300Y-109798100D02*
X157874700Y-109798100D01*
X149086300Y-109620300D02*
X149695900Y-109620300D01*
X151600900Y-110560100D02*
X153074100Y-110560100D01*
X154420300Y-110255300D02*
X154801300Y-110255300D01*
X148832300Y-109594900D02*
X149010100Y-109594900D01*
X152515300Y-109086900D02*
X152947100Y-109086900D01*
X152134300Y-109823500D02*
X152515300Y-109823500D01*
X155537900Y-109975900D02*
X155791900Y-109975900D01*
X156528500Y-109848900D02*
X156782500Y-109848900D01*
X150330900Y-110077500D02*
X151143700Y-110077500D01*
X159398700Y-109671100D02*
X159703500Y-109671100D01*
X150762700Y-109315500D02*
X150965900Y-109315500D01*
X156553900Y-109747300D02*
X156833300Y-109747300D01*
X159119300Y-109442500D02*
X159373300Y-109442500D01*
X154623500Y-109442500D02*
X154648900Y-109442500D01*
X157696900Y-110204500D02*
X158128700Y-110204500D01*
X159119300Y-110153700D02*
X159373300Y-110153700D01*
X151905700Y-110280700D02*
X153048700Y-110280700D01*
X148832300Y-109391700D02*
X149010100Y-109391700D01*
X150838900Y-109569500D02*
X151143700Y-109569500D01*
X151931100Y-110229900D02*
X153023300Y-110229900D01*
X148832300Y-109493300D02*
X149010100Y-109493300D01*
X152058100Y-109975900D02*
X152439100Y-109975900D01*
X149086300Y-110179100D02*
X149162500Y-110179100D01*
X150534100Y-109874300D02*
X151143700Y-109874300D01*
X148832300Y-109442500D02*
X149010100Y-109442500D01*
X155537900Y-109467900D02*
X155791900Y-109467900D01*
X153302700Y-110483900D02*
X153658300Y-110483900D01*
X149391100Y-110102900D02*
X149568900Y-110102900D01*
X148832300Y-109264700D02*
X149010100Y-109264700D01*
X157595300Y-109747300D02*
X157874700Y-109747300D01*
X153099500Y-110077500D02*
X153455100Y-110077500D01*
X149086300Y-109848900D02*
X149467300Y-109848900D01*
X154166300Y-109874300D02*
X154801300Y-109874300D01*
X155106100Y-109848900D02*
X155360100Y-109848900D01*
X150864300Y-109544100D02*
X151143700Y-109544100D01*
X153531300Y-109721900D02*
X153810700Y-109721900D01*
X149086300Y-110128300D02*
X149213300Y-110128300D01*
X153556700Y-109544100D02*
X153861500Y-109544100D01*
X159119300Y-109290100D02*
X159373300Y-109290100D01*
X156706300Y-109366300D02*
X157188900Y-109366300D01*
X150737300Y-109671100D02*
X151143700Y-109671100D01*
X159119300Y-110458500D02*
X159373300Y-110458500D01*
X150407100Y-110026700D02*
X151143700Y-110026700D01*
X157188900Y-110128300D02*
X157468300Y-110128300D01*
X157214300Y-110229900D02*
X157519100Y-110229900D01*
X152667700Y-108756700D02*
X152794700Y-108756700D01*
X159119300Y-109340900D02*
X159373300Y-109340900D01*
X152464500Y-109188500D02*
X152997900Y-109188500D01*
X149086300Y-110433100D02*
X149238700Y-110433100D01*
X156807900Y-109086900D02*
X157087300Y-109086900D01*
X152921700Y-109747300D02*
X153302700Y-109747300D01*
X153632900Y-110229900D02*
X154064700Y-110229900D01*
X149518100Y-110306100D02*
X151143700Y-110306100D01*
X155106100Y-109112300D02*
X155360100Y-109112300D01*
X153531300Y-109950500D02*
X153836100Y-109950500D01*
X149086300Y-110382300D02*
X149289500Y-110382300D01*
X149873700Y-109696500D02*
X150356300Y-109696500D01*
X149187900Y-109061500D02*
X150864300Y-109061500D01*
X151956500Y-110204500D02*
X152997900Y-110204500D01*
X153531300Y-109899700D02*
X153810700Y-109899700D01*
X149086300Y-108782100D02*
X149391100Y-108782100D01*
X155537900Y-109290100D02*
X155791900Y-109290100D01*
X152667700Y-108782100D02*
X152794700Y-108782100D01*
X157087300Y-109848900D02*
X157366700Y-109848900D01*
X155106100Y-109442500D02*
X155360100Y-109442500D01*
X159119300Y-109721900D02*
X159652700Y-109721900D01*
X159500300Y-109544100D02*
X159830500Y-109544100D01*
X149543500Y-110280700D02*
X151143700Y-110280700D01*
X152108900Y-109899700D02*
X152489900Y-109899700D01*
X152743900Y-109366300D02*
X153099500Y-109366300D01*
X156731700Y-109264700D02*
X157163500Y-109264700D01*
X155106100Y-109950500D02*
X155360100Y-109950500D01*
X157671500Y-109417100D02*
X158027100Y-109417100D01*
X150965900Y-109112300D02*
X151143700Y-109112300D01*
X149086300Y-109925100D02*
X149391100Y-109925100D01*
X157214300Y-110204500D02*
X157493700Y-110204500D01*
X159119300Y-109366300D02*
X159373300Y-109366300D01*
X156680900Y-109417100D02*
X157214300Y-109417100D01*
X157646100Y-109467900D02*
X157976300Y-109467900D01*
X149645100Y-110179100D02*
X151143700Y-110179100D01*
X153531300Y-109671100D02*
X153810700Y-109671100D01*
X153048700Y-109975900D02*
X153404300Y-109975900D01*
X150000700Y-110001300D02*
X150229300Y-110001300D01*
X156452300Y-110077500D02*
X157442900Y-110077500D01*
X159119300Y-110255300D02*
X159373300Y-110255300D01*
X158027100Y-110458500D02*
X158636700Y-110458500D01*
X155106100Y-109264700D02*
X155360100Y-109264700D01*
X159703500Y-109315500D02*
X160033700Y-109315500D01*
X149264100Y-108985300D02*
X150940500Y-108985300D01*
X149162500Y-110661700D02*
X150838900Y-110661700D01*
X152032700Y-110026700D02*
X152413700Y-110026700D01*
X155106100Y-110407700D02*
X155360100Y-110407700D01*
X153607500Y-110153700D02*
X153963100Y-110153700D01*
X156655500Y-109467900D02*
X156909500Y-109467900D01*
X150788100Y-109290100D02*
X150991300Y-109290100D01*
X153201100Y-110280700D02*
X153556700Y-110280700D01*
X156579300Y-109721900D02*
X156833300Y-109721900D01*
X150584900Y-109493300D02*
X150788100Y-109493300D01*
X157646100Y-110128300D02*
X158027100Y-110128300D01*
X156960300Y-109467900D02*
X157239700Y-109467900D01*
X151905700Y-110306100D02*
X153048700Y-110306100D01*
X152083500Y-109950500D02*
X152464500Y-109950500D01*
X150737300Y-109340900D02*
X150940500Y-109340900D01*
X154547300Y-110077500D02*
X154801300Y-110077500D01*
X149645100Y-109848900D02*
X149721300Y-109848900D01*
X148832300Y-109950500D02*
X149010100Y-109950500D01*
X153480500Y-110839500D02*
X153861500Y-110839500D01*
X149086300Y-110204500D02*
X149137100Y-110204500D01*
X154547300Y-110026700D02*
X154801300Y-110026700D01*
X152185100Y-109747300D02*
X152540700Y-109747300D01*
X155106100Y-109645700D02*
X155360100Y-109645700D01*
X149086300Y-110458500D02*
X149213300Y-110458500D01*
X157290500Y-110433100D02*
X157569900Y-110433100D01*
X153150300Y-110179100D02*
X153505900Y-110179100D01*
X149416500Y-108832900D02*
X151092900Y-108832900D01*
X157061900Y-109747300D02*
X157341300Y-109747300D01*
X150991300Y-109417100D02*
X151143700Y-109417100D01*
X159119300Y-109493300D02*
X159373300Y-109493300D01*
X159119300Y-109874300D02*
X159373300Y-109874300D01*
X149086300Y-109975900D02*
X149340300Y-109975900D01*
X152718500Y-108680500D02*
X152743900Y-108680500D01*
X148832300Y-109671100D02*
X149010100Y-109671100D01*
X153505900Y-110890300D02*
X153886900Y-110890300D01*
X149086300Y-109493300D02*
X149822900Y-109493300D01*
X152159700Y-109772700D02*
X152540700Y-109772700D01*
X155537900Y-109417100D02*
X155791900Y-109417100D01*
X149924500Y-109594900D02*
X150305500Y-109594900D01*
X155537900Y-109671100D02*
X155791900Y-109671100D01*
X159627300Y-110128300D02*
X159982900Y-110128300D01*
X149086300Y-109823500D02*
X149492700Y-109823500D01*
X155537900Y-109086900D02*
X155791900Y-109086900D01*
X151067500Y-109010700D02*
X151143700Y-109010700D01*
X156655500Y-109518700D02*
X156909500Y-109518700D01*
X149086300Y-109366300D02*
X150559500Y-109366300D01*
X153023300Y-109950500D02*
X153404300Y-109950500D01*
X155106100Y-109747300D02*
X155360100Y-109747300D01*
X148908500Y-108959900D02*
X149213300Y-108959900D01*
X154166300Y-109747300D02*
X154801300Y-109747300D01*
X149314900Y-110179100D02*
X149492700Y-110179100D01*
X150915100Y-109493300D02*
X151143700Y-109493300D01*
X149264100Y-110229900D02*
X149441900Y-110229900D01*
X157214300Y-110255300D02*
X157519100Y-110255300D01*
X150915100Y-109163100D02*
X151143700Y-109163100D01*
X156630100Y-109569500D02*
X156884100Y-109569500D01*
X148832300Y-110052100D02*
X149010100Y-110052100D01*
X155537900Y-109620300D02*
X155791900Y-109620300D01*
X155106100Y-109899700D02*
X155360100Y-109899700D01*
X149492700Y-110331500D02*
X151143700Y-110331500D01*
X148832300Y-110331500D02*
X149010100Y-110331500D01*
X153429700Y-110737900D02*
X153810700Y-110737900D01*
X156528500Y-109823500D02*
X156807900Y-109823500D01*
X155537900Y-110280700D02*
X156630100Y-110280700D01*
X155537900Y-109823500D02*
X155791900Y-109823500D01*
X155537900Y-109264700D02*
X155791900Y-109264700D01*
X150610300Y-109467900D02*
X150813500Y-109467900D01*
X159805100Y-110331500D02*
X160186100Y-110331500D01*
X155106100Y-110458500D02*
X155360100Y-110458500D01*
X159119300Y-109264700D02*
X159373300Y-109264700D01*
X157773100Y-110306100D02*
X158763700Y-110306100D01*
X148832300Y-109213900D02*
X149010100Y-109213900D01*
X159398700Y-109645700D02*
X159728900Y-109645700D01*
X150508700Y-109671100D02*
X150584900Y-109671100D01*
X152007300Y-110077500D02*
X152947100Y-110077500D01*
X148832300Y-109467900D02*
X149010100Y-109467900D01*
X159652700Y-109366300D02*
X159982900Y-109366300D01*
X153531300Y-109620300D02*
X153836100Y-109620300D01*
X157950900Y-110433100D02*
X158712900Y-110433100D01*
X159551100Y-110026700D02*
X159906700Y-110026700D01*
X152210500Y-109671100D02*
X152591500Y-109671100D01*
X152896300Y-109696500D02*
X153277300Y-109696500D01*
X148832300Y-109137700D02*
X149043860Y-109137700D01*
X153455100Y-110814100D02*
X153836100Y-110814100D01*
X149086300Y-109772700D02*
X149543500Y-109772700D01*
X152362900Y-109391700D02*
X152718500Y-109391700D01*
X149086300Y-109442500D02*
X149899100Y-109442500D01*
X155537900Y-110179100D02*
X155791900Y-110179100D01*
X153607500Y-109417100D02*
X154013900Y-109417100D01*
X155537900Y-109721900D02*
X155791900Y-109721900D01*
X155106100Y-110382300D02*
X155360100Y-110382300D01*
X155106100Y-110280700D02*
X155360100Y-110280700D01*
X153404300Y-110687100D02*
X153785300Y-110687100D01*
X155106100Y-110077500D02*
X155360100Y-110077500D01*
X157874700Y-109188500D02*
X158763700Y-109188500D01*
X150254700Y-110128300D02*
X151143700Y-110128300D01*
X159703500Y-110204500D02*
X160059100Y-110204500D01*
X151067500Y-109036100D02*
X151143700Y-109036100D01*
X153556700Y-110026700D02*
X153861500Y-110026700D01*
X159728900Y-110229900D02*
X160084500Y-110229900D01*
X157798500Y-109239300D02*
X158738300Y-109239300D01*
X152235900Y-109620300D02*
X152616900Y-109620300D01*
X159678100Y-110179100D02*
X160033700Y-110179100D01*
X159119300Y-110026700D02*
X159373300Y-110026700D01*
X155537900Y-110458500D02*
X156579300Y-110458500D01*
X157595300Y-109874300D02*
X157874700Y-109874300D01*
X159119300Y-109112300D02*
X159373300Y-109112300D01*
X152286700Y-109544100D02*
X152642300Y-109544100D01*
X149568900Y-110255300D02*
X151143700Y-110255300D01*
X152464500Y-109163100D02*
X152997900Y-109163100D01*
X157011100Y-109620300D02*
X157290500Y-109620300D01*
X155537900Y-109925100D02*
X155791900Y-109925100D01*
X151600900Y-110661700D02*
X153074100Y-110661700D01*
X159119300Y-109391700D02*
X159373300Y-109391700D01*
X153531300Y-109798100D02*
X153810700Y-109798100D01*
X152210500Y-109696500D02*
X152566100Y-109696500D01*
X153632900Y-109391700D02*
X154039300Y-109391700D01*
X157595300Y-109950500D02*
X157900100Y-109950500D01*
X149492700Y-110001300D02*
X149670500Y-110001300D01*
X153556700Y-110052100D02*
X153886900Y-110052100D01*
X149873700Y-109848900D02*
X150356300Y-109848900D01*
X149416500Y-110407700D02*
X151092900Y-110407700D01*
X153734500Y-110331500D02*
X154801300Y-110331500D01*
X152693100Y-108731300D02*
X152769300Y-108731300D01*
X154166300Y-109772700D02*
X154801300Y-109772700D01*
X155537900Y-109163100D02*
X155791900Y-109163100D01*
X155106100Y-109290100D02*
X155360100Y-109290100D01*
X158611300Y-110204500D02*
X158712900Y-110204500D01*
X153531300Y-109823500D02*
X153810700Y-109823500D01*
X153632900Y-110204500D02*
X154013900Y-110204500D01*
X153277300Y-110458500D02*
X153658300Y-110458500D01*
X150280100Y-109417100D02*
X150508700Y-109417100D01*
X155537900Y-110407700D02*
X156604700Y-110407700D01*
X152337500Y-109442500D02*
X152693100Y-109442500D01*
X149162500Y-108705900D02*
X149467300Y-108705900D01*
X149086300Y-110102900D02*
X149238700Y-110102900D01*
X149670500Y-110153700D02*
X150051500Y-110153700D01*
X157595300Y-109671100D02*
X157874700Y-109671100D01*
X155106100Y-110179100D02*
X155360100Y-110179100D01*
X151981900Y-110128300D02*
X152972500Y-110128300D01*
X148832300Y-110001300D02*
X149010100Y-110001300D01*
X159119300Y-109163100D02*
X159373300Y-109163100D01*
X155106100Y-109239300D02*
X155360100Y-109239300D01*
X149441900Y-108807500D02*
X151143700Y-108807500D01*
X153607500Y-110179100D02*
X153988500Y-110179100D01*
X150965900Y-109442500D02*
X151143700Y-109442500D01*
X152769300Y-109417100D02*
X153124900Y-109417100D01*
X154166300Y-109925100D02*
X154801300Y-109925100D01*
X152896300Y-109671100D02*
X153251900Y-109671100D01*
X159119300Y-110433100D02*
X159373300Y-110433100D01*
X159119300Y-109798100D02*
X159703500Y-109798100D01*
X159119300Y-109950500D02*
X159373300Y-109950500D01*
X152642300Y-108807500D02*
X152820100Y-108807500D01*
X159906700Y-110433100D02*
X160262300Y-110433100D01*
X159627300Y-110102900D02*
X159957500Y-110102900D01*
X155106100Y-109137700D02*
X155360100Y-109137700D01*
X153353500Y-110610900D02*
X153734500Y-110610900D01*
X159119300Y-110407700D02*
X159373300Y-110407700D01*
X149314900Y-110509300D02*
X150991300Y-110509300D01*
X153531300Y-109645700D02*
X153836100Y-109645700D01*
X149086300Y-109315500D02*
X150610300Y-109315500D01*
X155106100Y-110026700D02*
X155360100Y-110026700D01*
X153074100Y-110052100D02*
X153455100Y-110052100D01*
X156604700Y-109620300D02*
X156858700Y-109620300D01*
X159119300Y-109925100D02*
X159373300Y-109925100D01*
X153836100Y-110433100D02*
X154674300Y-110433100D01*
X159830500Y-109163100D02*
X160186100Y-109163100D01*
X149289500Y-110534700D02*
X150965900Y-110534700D01*
X152312100Y-109493300D02*
X152667700Y-109493300D01*
X149772100Y-110052100D02*
X149848300Y-110052100D01*
X156757100Y-109239300D02*
X157138100Y-109239300D01*
X149086300Y-109264700D02*
X150661100Y-109264700D01*
X152870900Y-109620300D02*
X153226500Y-109620300D01*
X149289500Y-110204500D02*
X149467300Y-110204500D01*
X153531300Y-109925100D02*
X153810700Y-109925100D01*
X148832300Y-109239300D02*
X149010100Y-109239300D01*
X153658300Y-110255300D02*
X154140900Y-110255300D01*
X154521900Y-109391700D02*
X154674300Y-109391700D01*
X153582100Y-109493300D02*
X153912300Y-109493300D01*
X149137100Y-109112300D02*
X150813500Y-109112300D01*
X156553900Y-109772700D02*
X156807900Y-109772700D01*
X153226500Y-110356900D02*
X153607500Y-110356900D01*
X159119300Y-109569500D02*
X159373300Y-109569500D01*
X155537900Y-110128300D02*
X155791900Y-110128300D01*
X150457900Y-109950500D02*
X151143700Y-109950500D01*
X159855900Y-109137700D02*
X160211500Y-109137700D01*
X157265100Y-110382300D02*
X157569900Y-110382300D01*
X159119300Y-109747300D02*
X159652700Y-109747300D01*
X149137100Y-108731300D02*
X149441900Y-108731300D01*
X159881300Y-109112300D02*
X160236900Y-109112300D01*
X152032700Y-110052100D02*
X152413700Y-110052100D01*
X148832300Y-109899700D02*
X149010100Y-109899700D01*
X153328100Y-110560100D02*
X153709100Y-110560100D01*
X151600900Y-110636300D02*
X153074100Y-110636300D01*
X155537900Y-109112300D02*
X155791900Y-109112300D01*
X150508700Y-109645700D02*
X150610300Y-109645700D01*
X150381700Y-110052100D02*
X151143700Y-110052100D01*
X149162500Y-109086900D02*
X150838900Y-109086900D01*
X153226500Y-110331500D02*
X153582100Y-110331500D01*
X159119300Y-109518700D02*
X159373300Y-109518700D01*
X159119300Y-110356900D02*
X159373300Y-110356900D01*
X157036500Y-109671100D02*
X157290500Y-109671100D01*
X149086300Y-109340900D02*
X150584900Y-109340900D01*
X149518100Y-109975900D02*
X149695900Y-109975900D01*
X159119300Y-110306100D02*
X159373300Y-110306100D01*
X150508700Y-109594900D02*
X150686500Y-109594900D01*
X150635700Y-109442500D02*
X150838900Y-109442500D01*
X155537900Y-109747300D02*
X155791900Y-109747300D01*
X157925500Y-110407700D02*
X158789100Y-110407700D01*
X149086300Y-109645700D02*
X149670500Y-109645700D01*
X156680900Y-109391700D02*
X157188900Y-109391700D01*
X159779700Y-110280700D02*
X160135300Y-110280700D01*
X149086300Y-110077500D02*
X149264100Y-110077500D01*
X152997900Y-109874300D02*
X153353500Y-109874300D01*
X159119300Y-109239300D02*
X159373300Y-109239300D01*
X149873700Y-109874300D02*
X150330900Y-109874300D01*
X159119300Y-109213900D02*
X159373300Y-109213900D01*
X152972500Y-109848900D02*
X153353500Y-109848900D01*
X148832300Y-109569500D02*
X149010100Y-109569500D01*
X156782500Y-109137700D02*
X157112700Y-109137700D01*
X159805100Y-109188500D02*
X160160700Y-109188500D01*
X151880300Y-110331500D02*
X153074100Y-110331500D01*
X148832300Y-110026700D02*
X149010100Y-110026700D01*
X157239700Y-110280700D02*
X157519100Y-110280700D01*
X149086300Y-110483900D02*
X149187900Y-110483900D01*
X155537900Y-109899700D02*
X155791900Y-109899700D01*
X149899100Y-109899700D02*
X150330900Y-109899700D01*
X149949900Y-109569500D02*
X150280100Y-109569500D01*
X153582100Y-110128300D02*
X153937700Y-110128300D01*
X150991300Y-109086900D02*
X151143700Y-109086900D01*
X155537900Y-109569500D02*
X155791900Y-109569500D01*
X152820100Y-109518700D02*
X153175700Y-109518700D01*
X159881300Y-110407700D02*
X160236900Y-110407700D01*
X155537900Y-109950500D02*
X155791900Y-109950500D01*
X149619700Y-109874300D02*
X149721300Y-109874300D01*
X157087300Y-109874300D02*
X157366700Y-109874300D01*
X157239700Y-110306100D02*
X157544500Y-110306100D01*
X153048700Y-110001300D02*
X153429700Y-110001300D01*
X150559500Y-109848900D02*
X151143700Y-109848900D01*
X152337500Y-109417100D02*
X152693100Y-109417100D01*
X159525700Y-109518700D02*
X159855900Y-109518700D01*
X159119300Y-109137700D02*
X159373300Y-109137700D01*
X150838900Y-109239300D02*
X151042100Y-109239300D01*
X158103300Y-109086900D02*
X158560500Y-109086900D01*
X155537900Y-109848900D02*
X155791900Y-109848900D01*
X153886900Y-109163100D02*
X154623500Y-109163100D01*
X149238700Y-108629700D02*
X150991300Y-108629700D01*
X155106100Y-109721900D02*
X155360100Y-109721900D01*
X155537900Y-109391700D02*
X155791900Y-109391700D01*
X149365700Y-108883700D02*
X151042100Y-108883700D01*
X155106100Y-110306100D02*
X155360100Y-110306100D01*
X159805100Y-110306100D02*
X160160700Y-110306100D01*
X152413700Y-109290100D02*
X153048700Y-109290100D01*
X152642300Y-108832900D02*
X152820100Y-108832900D01*
X152947100Y-109772700D02*
X153302700Y-109772700D01*
X153124900Y-110153700D02*
X153505900Y-110153700D01*
X157595300Y-109645700D02*
X157874700Y-109645700D01*
X156477700Y-110001300D02*
X157417500Y-110001300D01*
X149086300Y-109290100D02*
X150635700Y-109290100D01*
X155106100Y-109493300D02*
X155360100Y-109493300D01*
X148832300Y-110306100D02*
X149010100Y-110306100D01*
X156553900Y-109798100D02*
X156807900Y-109798100D01*
X148832300Y-109747300D02*
X149010100Y-109747300D01*
X150813500Y-109594900D02*
X151143700Y-109594900D01*
X156985700Y-109544100D02*
X157265100Y-109544100D01*
X155106100Y-109366300D02*
X155360100Y-109366300D01*
X154166300Y-109798100D02*
X154801300Y-109798100D01*
X150661100Y-109747300D02*
X151143700Y-109747300D01*
X156579300Y-109671100D02*
X156858700Y-109671100D01*
X159576500Y-110052100D02*
X159932100Y-110052100D01*
X153251900Y-110407700D02*
X153632900Y-110407700D01*
X159119300Y-109696500D02*
X159678100Y-109696500D01*
X157849300Y-109213900D02*
X158763700Y-109213900D01*
X148832300Y-110229900D02*
X149010100Y-110229900D01*
X150661100Y-109417100D02*
X150864300Y-109417100D01*
X155537900Y-110077500D02*
X155791900Y-110077500D01*
X149060900Y-108807500D02*
X149365700Y-108807500D01*
X152515300Y-109061500D02*
X152947100Y-109061500D01*
X159119300Y-110229900D02*
X159373300Y-110229900D01*
X159119300Y-110179100D02*
X159373300Y-110179100D01*
X157595300Y-109848900D02*
X157874700Y-109848900D01*
X152616900Y-108883700D02*
X152845500Y-108883700D01*
X150610300Y-109798100D02*
X151143700Y-109798100D01*
X149873700Y-109721900D02*
X150356300Y-109721900D01*
X155106100Y-109188500D02*
X155360100Y-109188500D01*
X149619700Y-110204500D02*
X151143700Y-110204500D01*
X159119300Y-109823500D02*
X159728900Y-109823500D01*
X153759900Y-109239300D02*
X154750500Y-109239300D01*
X157087300Y-109823500D02*
X157366700Y-109823500D01*
X157595300Y-109925100D02*
X157900100Y-109925100D01*
X153683700Y-109315500D02*
X154725100Y-109315500D01*
X152845500Y-109594900D02*
X153226500Y-109594900D01*
X152134300Y-109848900D02*
X152515300Y-109848900D01*
X157036500Y-109721900D02*
X157315900Y-109721900D01*
X149873700Y-109823500D02*
X150356300Y-109823500D01*
X159119300Y-110204500D02*
X159373300Y-110204500D01*
X159576500Y-109442500D02*
X159932100Y-109442500D01*
X151016700Y-109061500D02*
X151143700Y-109061500D01*
X159119300Y-109594900D02*
X159373300Y-109594900D01*
X149086300Y-110737900D02*
X150762700Y-110737900D01*
X155106100Y-110153700D02*
X155360100Y-110153700D01*
X153505900Y-110915700D02*
X153886900Y-110915700D01*
X149975300Y-109544100D02*
X150254700Y-109544100D01*
X153531300Y-109975900D02*
X153836100Y-109975900D01*
X159551100Y-109493300D02*
X159881300Y-109493300D01*
X153556700Y-109518700D02*
X153886900Y-109518700D01*
X153785300Y-110382300D02*
X154750500Y-110382300D01*
X153124900Y-110128300D02*
X153480500Y-110128300D01*
X159119300Y-109671100D02*
X159373300Y-109671100D01*
X151067500Y-109340900D02*
X151143700Y-109340900D01*
X149340300Y-108528100D02*
X150991300Y-108528100D01*
X152997900Y-109899700D02*
X153378900Y-109899700D01*
X155537900Y-109798100D02*
X155791900Y-109798100D01*
X151092900Y-109315500D02*
X151143700Y-109315500D01*
X155537900Y-109696500D02*
X155791900Y-109696500D01*
X158027100Y-109112300D02*
X158662100Y-109112300D01*
X152591500Y-108909100D02*
X152870900Y-108909100D01*
X159855900Y-110382300D02*
X160211500Y-110382300D01*
X149086300Y-109239300D02*
X150686500Y-109239300D01*
X159601900Y-110077500D02*
X159957500Y-110077500D01*
X159754300Y-109264700D02*
X160084500Y-109264700D01*
X159652700Y-110153700D02*
X160008300Y-110153700D01*
X149924500Y-109950500D02*
X150305500Y-109950500D01*
X157620700Y-110026700D02*
X157925500Y-110026700D01*
X156757100Y-109188500D02*
X157112700Y-109188500D01*
X150432500Y-109975900D02*
X151143700Y-109975900D01*
X149797500Y-110026700D02*
X149822900Y-110026700D01*
X149086300Y-109671100D02*
X149645100Y-109671100D01*
X153378900Y-110636300D02*
X153734500Y-110636300D01*
X148832300Y-109163100D02*
X149023860Y-109163100D01*
X156503100Y-109925100D02*
X157392100Y-109925100D01*
X155106100Y-110001300D02*
X155360100Y-110001300D01*
X155106100Y-109696500D02*
X155360100Y-109696500D01*
X156426900Y-110128300D02*
X156706300Y-110128300D01*
X148832300Y-109823500D02*
X149010100Y-109823500D01*
X155106100Y-109340900D02*
X155360100Y-109340900D01*
X149365700Y-110128300D02*
X149543500Y-110128300D01*
X157747700Y-110255300D02*
X158738300Y-110255300D01*
X157315900Y-110458500D02*
X157595300Y-110458500D01*
X157620700Y-109544100D02*
X157925500Y-109544100D01*
X155537900Y-109874300D02*
X155791900Y-109874300D01*
X157925500Y-109163100D02*
X158763700Y-109163100D01*
X152286700Y-109518700D02*
X152667700Y-109518700D01*
X159119300Y-110052100D02*
X159373300Y-110052100D01*
X159119300Y-109772700D02*
X159678100Y-109772700D01*
X150407100Y-109518700D02*
X150432500Y-109518700D01*
X149238700Y-109010700D02*
X150915100Y-109010700D01*
X155537900Y-109442500D02*
X155791900Y-109442500D01*
X153531300Y-109848900D02*
X153810700Y-109848900D01*
X155106100Y-109569500D02*
X155360100Y-109569500D01*
X157620700Y-109518700D02*
X157950900Y-109518700D01*
X155106100Y-109315500D02*
X155360100Y-109315500D01*
X149391100Y-110433100D02*
X151067500Y-110433100D01*
X149441900Y-110052100D02*
X149619700Y-110052100D01*
X149187900Y-110306100D02*
X149365700Y-110306100D01*
X153175700Y-110255300D02*
X153556700Y-110255300D01*
X157646100Y-110077500D02*
X157976300Y-110077500D01*
X152261300Y-109569500D02*
X152642300Y-109569500D01*
X150889700Y-109518700D02*
X151143700Y-109518700D01*
X153658300Y-109366300D02*
X154115500Y-109366300D01*
X148832300Y-109874300D02*
X149010100Y-109874300D01*
X155106100Y-109874300D02*
X155360100Y-109874300D01*
X153810700Y-109213900D02*
X154725100Y-109213900D01*
X155106100Y-110102900D02*
X155360100Y-110102900D01*
X158611300Y-109366300D02*
X158687500Y-109366300D01*
X156680900Y-109442500D02*
X156934900Y-109442500D01*
X149568900Y-109925100D02*
X149721300Y-109925100D01*
X152058100Y-110001300D02*
X152439100Y-110001300D01*
X148832300Y-109544100D02*
X149010100Y-109544100D01*
X149594300Y-109899700D02*
X149721300Y-109899700D01*
X159932100Y-110458500D02*
X160287700Y-110458500D01*
X153937700Y-109137700D02*
X154547300Y-109137700D01*
X152235900Y-109645700D02*
X152591500Y-109645700D01*
X155537900Y-110331500D02*
X156630100Y-110331500D01*
X154547300Y-110153700D02*
X154801300Y-110153700D01*
X149086300Y-109569500D02*
X149746700Y-109569500D01*
X157011100Y-109645700D02*
X157290500Y-109645700D01*
X152312100Y-109467900D02*
X152667700Y-109467900D01*
X148832300Y-110179100D02*
X149010100Y-110179100D01*
X159119300Y-109899700D02*
X159373300Y-109899700D01*
X155537900Y-109188500D02*
X155791900Y-109188500D01*
X150635700Y-109772700D02*
X151143700Y-109772700D01*
X149086300Y-110712500D02*
X150788100Y-110712500D01*
X153531300Y-109696500D02*
X153810700Y-109696500D01*
X159119300Y-110077500D02*
X159373300Y-110077500D01*
X155537900Y-109315500D02*
X155791900Y-109315500D01*
X149213300Y-109036100D02*
X150889700Y-109036100D01*
X149314900Y-108934500D02*
X150991300Y-108934500D01*
X149213300Y-108655100D02*
X150991300Y-108655100D01*
X159398700Y-109848900D02*
X159728900Y-109848900D01*
X157188900Y-110179100D02*
X157493700Y-110179100D01*
X148832300Y-109925100D02*
X149010100Y-109925100D01*
X152591500Y-108934500D02*
X152870900Y-108934500D01*
X157265100Y-110331500D02*
X157544500Y-110331500D01*
X155537900Y-110382300D02*
X156604700Y-110382300D01*
X149238700Y-110585500D02*
X150915100Y-110585500D01*
X153963100Y-110483900D02*
X154547300Y-110483900D01*
X148832300Y-110433100D02*
X148908500Y-110433100D01*
X155106100Y-109518700D02*
X155360100Y-109518700D01*
X149137100Y-110356900D02*
X149314900Y-110356900D01*
X149213300Y-110610900D02*
X150889700Y-110610900D01*
X159627300Y-109391700D02*
X159982900Y-109391700D01*
X157265100Y-110356900D02*
X157544500Y-110356900D01*
X153429700Y-110763300D02*
X153810700Y-110763300D01*
X153836100Y-109188500D02*
X154674300Y-109188500D01*
X153531300Y-109772700D02*
X153810700Y-109772700D01*
X148832300Y-109315500D02*
X149010100Y-109315500D01*
X159119300Y-110128300D02*
X159373300Y-110128300D01*
X149467300Y-110356900D02*
X151143700Y-110356900D01*
X150711900Y-109696500D02*
X151143700Y-109696500D01*
X150407100Y-110001300D02*
X151143700Y-110001300D01*
X153378900Y-110661700D02*
X153759900Y-110661700D01*
X152566100Y-108985300D02*
X152896300Y-108985300D01*
X156477700Y-109975900D02*
X157417500Y-109975900D01*
X154547300Y-109975900D02*
X154801300Y-109975900D01*
X149086300Y-109518700D02*
X149797500Y-109518700D01*
X150026100Y-109518700D02*
X150203900Y-109518700D01*
X156960300Y-109493300D02*
X157239700Y-109493300D01*
X155537900Y-110102900D02*
X155791900Y-110102900D01*
X152159700Y-109798100D02*
X152515300Y-109798100D01*
X150305500Y-110102900D02*
X151143700Y-110102900D01*
X150381700Y-109493300D02*
X150432500Y-109493300D01*
X148832300Y-109036100D02*
X149137100Y-109036100D01*
X149086300Y-109950500D02*
X149365700Y-109950500D01*
X154521900Y-110204500D02*
X154801300Y-110204500D01*
X157722300Y-109340900D02*
X158179500Y-109340900D01*
X148832300Y-109086900D02*
X149083860Y-109086900D01*
X159754300Y-110255300D02*
X160109900Y-110255300D01*
X157671500Y-109391700D02*
X158077900Y-109391700D01*
X157646100Y-110102900D02*
X158001700Y-110102900D01*
X152413700Y-109264700D02*
X153048700Y-109264700D01*
X155106100Y-110128300D02*
X155360100Y-110128300D01*
X154547300Y-110102900D02*
X154801300Y-110102900D01*
X148832300Y-110280700D02*
X149010100Y-110280700D01*
X150330900Y-109442500D02*
X150483300Y-109442500D01*
X155106100Y-109823500D02*
X155360100Y-109823500D01*
X159500300Y-109975900D02*
X159855900Y-109975900D01*
X150762700Y-109645700D02*
X151143700Y-109645700D01*
X158103300Y-110483900D02*
X158535100Y-110483900D01*
X153556700Y-109594900D02*
X153836100Y-109594900D01*
X159119300Y-110382300D02*
X159373300Y-110382300D01*
X148832300Y-109696500D02*
X149010100Y-109696500D01*
X149086300Y-110509300D02*
X149162500Y-110509300D01*
X155106100Y-110433100D02*
X155360100Y-110433100D01*
X159119300Y-110331500D02*
X159373300Y-110331500D01*
X153201100Y-110306100D02*
X153582100Y-110306100D01*
X148883100Y-108985300D02*
X149187900Y-108985300D01*
X149086300Y-109467900D02*
X149848300Y-109467900D01*
X149086300Y-109747300D02*
X149568900Y-109747300D01*
X151600900Y-110610900D02*
X153074100Y-110610900D01*
X152921700Y-109721900D02*
X153277300Y-109721900D01*
X159474900Y-109950500D02*
X159830500Y-109950500D01*
X148832300Y-109772700D02*
X149010100Y-109772700D01*
X149467300Y-108782100D02*
X151143700Y-108782100D01*
X155106100Y-109467900D02*
X155360100Y-109467900D01*
X153556700Y-109569500D02*
X153861500Y-109569500D01*
X156706300Y-109340900D02*
X157188900Y-109340900D01*
X149086300Y-110407700D02*
X149264100Y-110407700D01*
X149137100Y-110687100D02*
X150813500Y-110687100D01*
X148832300Y-109848900D02*
X149010100Y-109848900D01*
X148984700Y-108883700D02*
X149289500Y-108883700D01*
X157798500Y-110331500D02*
X158763700Y-110331500D01*
X151931100Y-110255300D02*
X153023300Y-110255300D01*
X149086300Y-109163100D02*
X150762700Y-109163100D01*
X153328100Y-110534700D02*
X153683700Y-110534700D01*
X153404300Y-110712500D02*
X153785300Y-110712500D01*
X152794700Y-109493300D02*
X153150300Y-109493300D01*
X155106100Y-110331500D02*
X155360100Y-110331500D01*
X159424100Y-109620300D02*
X159754300Y-109620300D01*
X150940500Y-109467900D02*
X151143700Y-109467900D01*
X156426900Y-110102900D02*
X157468300Y-110102900D01*
X151042100Y-109366300D02*
X151143700Y-109366300D01*
X155106100Y-109417100D02*
X155360100Y-109417100D01*
X155537900Y-110306100D02*
X156630100Y-110306100D01*
X152794700Y-109467900D02*
X153150300Y-109467900D01*
X149187900Y-110636300D02*
X150864300Y-110636300D01*
X155537900Y-109366300D02*
X155791900Y-109366300D01*
X152489900Y-109112300D02*
X152972500Y-109112300D01*
X152743900Y-109391700D02*
X153099500Y-109391700D01*
X155106100Y-109925100D02*
X155360100Y-109925100D01*
X148832300Y-110204500D02*
X149010100Y-110204500D01*
X149086300Y-110534700D02*
X149137100Y-110534700D01*
X157671500Y-110153700D02*
X158052500Y-110153700D01*
X149340300Y-110153700D02*
X149518100Y-110153700D01*
X152083500Y-109925100D02*
X152464500Y-109925100D01*
X156452300Y-110052100D02*
X157442900Y-110052100D01*
X157747700Y-109290100D02*
X158712900Y-109290100D01*
X149086300Y-110763300D02*
X150737300Y-110763300D01*
X152261300Y-109594900D02*
X152616900Y-109594900D01*
X153556700Y-110991900D02*
X153937700Y-110991900D01*
X159449500Y-109899700D02*
X159779700Y-109899700D01*
X148832300Y-109975900D02*
X149010100Y-109975900D01*
X149086300Y-109391700D02*
X150000700Y-109391700D01*
X148832300Y-110255300D02*
X149010100Y-110255300D01*
X149187900Y-108680500D02*
X150991300Y-108680500D01*
X148832300Y-110077500D02*
X149010100Y-110077500D01*
X150864300Y-109213900D02*
X151067500Y-109213900D01*
X155106100Y-109544100D02*
X155360100Y-109544100D01*
X155106100Y-109772700D02*
X155360100Y-109772700D01*
X159576500Y-109467900D02*
X159906700Y-109467900D01*
X150584900Y-109823500D02*
X151143700Y-109823500D01*
X155537900Y-109493300D02*
X155791900Y-109493300D01*
X155537900Y-110001300D02*
X155791900Y-110001300D01*
X149238700Y-110255300D02*
X149416500Y-110255300D01*
X155106100Y-110356900D02*
X155360100Y-110356900D01*
X155537900Y-110026700D02*
X155791900Y-110026700D01*
X157696900Y-109366300D02*
X158128700Y-109366300D01*
X153709100Y-109290100D02*
X154750500Y-109290100D01*
X149721300Y-110102900D02*
X149899100Y-110102900D01*
X155537900Y-109518700D02*
X155791900Y-109518700D01*
X149543500Y-109950500D02*
X149721300Y-109950500D01*
X159449500Y-109594900D02*
X159779700Y-109594900D01*
X155106100Y-110204500D02*
X155360100Y-110204500D01*
X153709100Y-110306100D02*
X154801300Y-110306100D01*
X148832300Y-109721900D02*
X149010100Y-109721900D01*
X157595300Y-109696500D02*
X157874700Y-109696500D01*
X148832300Y-109366300D02*
X149010100Y-109366300D01*
X150153100Y-110153700D02*
X151143700Y-110153700D01*
X148959300Y-108909100D02*
X149264100Y-108909100D01*
X150889700Y-109188500D02*
X151092900Y-109188500D01*
X157747700Y-110280700D02*
X158738300Y-110280700D01*
X157011100Y-109594900D02*
X157265100Y-109594900D01*
X152007300Y-110102900D02*
X152947100Y-110102900D01*
X149213300Y-110280700D02*
X149391100Y-110280700D01*
X157646100Y-109442500D02*
X158001700Y-109442500D01*
X148832300Y-109290100D02*
X149010100Y-109290100D01*
X153531300Y-110966500D02*
X153912300Y-110966500D01*
X159119300Y-109086900D02*
X159373300Y-109086900D01*
X153455100Y-110788700D02*
X153836100Y-110788700D01*
X149746700Y-110077500D02*
X149873700Y-110077500D01*
X149086300Y-110001300D02*
X149314900Y-110001300D01*
X156985700Y-109518700D02*
X157239700Y-109518700D01*
X155106100Y-109213900D02*
X155360100Y-109213900D01*
X148832300Y-110407700D02*
X148933900Y-110407700D01*
X156579300Y-109696500D02*
X156833300Y-109696500D01*
X148832300Y-109645700D02*
X149010100Y-109645700D01*
X155106100Y-109391700D02*
X155360100Y-109391700D01*
X149365700Y-110458500D02*
X151042100Y-110458500D01*
X148832300Y-110356900D02*
X148984700Y-110356900D01*
X149264100Y-108604300D02*
X150991300Y-108604300D01*
X155537900Y-109137700D02*
X155791900Y-109137700D01*
X149264100Y-110560100D02*
X150940500Y-110560100D01*
X159119300Y-109417100D02*
X159373300Y-109417100D01*
X148832300Y-110128300D02*
X149010100Y-110128300D01*
X152540700Y-109036100D02*
X152921700Y-109036100D01*
X157620700Y-110052100D02*
X157950900Y-110052100D01*
X152540700Y-109010700D02*
X152921700Y-109010700D01*
X155537900Y-110229900D02*
X155791900Y-110229900D01*
X159119300Y-109315500D02*
X159373300Y-109315500D01*
X152845500Y-109569500D02*
X153201100Y-109569500D01*
X149467300Y-110026700D02*
X149645100Y-110026700D01*
X151956500Y-110179100D02*
X152997900Y-110179100D01*
X152108900Y-109874300D02*
X152489900Y-109874300D01*
X152185100Y-109721900D02*
X152566100Y-109721900D01*
X156477700Y-109950500D02*
X157392100Y-109950500D01*
X150686500Y-109721900D02*
X151143700Y-109721900D01*
X155537900Y-110204500D02*
X155791900Y-110204500D01*
X150559500Y-109518700D02*
X150762700Y-109518700D01*
X152870900Y-109645700D02*
X153251900Y-109645700D01*
X156985700Y-109569500D02*
X157265100Y-109569500D01*
X159119300Y-109620300D02*
X159373300Y-109620300D01*
X154166300Y-109899700D02*
X154801300Y-109899700D01*
X156604700Y-109645700D02*
X156858700Y-109645700D01*
X149111700Y-108756700D02*
X149416500Y-108756700D01*
X154547300Y-110001300D02*
X154801300Y-110001300D01*
X157620700Y-110001300D02*
X157925500Y-110001300D01*
X148832300Y-109340900D02*
X149010100Y-109340900D01*
X155537900Y-110255300D02*
X156655500Y-110255300D01*
X153582100Y-109467900D02*
X153937700Y-109467900D01*
X153531300Y-110941100D02*
X153912300Y-110941100D01*
X153099500Y-110102900D02*
X153480500Y-110102900D01*
X156655500Y-109493300D02*
X156909500Y-109493300D01*
X151600900Y-110788700D02*
X153074100Y-110788700D01*
X148832300Y-109061500D02*
X149113860Y-109061500D01*
X155106100Y-109086900D02*
X155360100Y-109086900D01*
X148832300Y-109798100D02*
X149010100Y-109798100D01*
X155106100Y-109671100D02*
X155360100Y-109671100D01*
X153531300Y-109874300D02*
X153810700Y-109874300D01*
X156960300Y-109442500D02*
X157214300Y-109442500D01*
X152439100Y-109239300D02*
X153023300Y-109239300D01*
X149086300Y-110026700D02*
X149314900Y-110026700D01*
X148832300Y-109518700D02*
X149010100Y-109518700D01*
X157595300Y-109772700D02*
X157874700Y-109772700D01*
X149670500Y-109823500D02*
X149721300Y-109823500D01*
X149391100Y-108858300D02*
X151067500Y-108858300D01*
X151880300Y-110356900D02*
X153074100Y-110356900D01*
X154496500Y-110229900D02*
X154801300Y-110229900D01*
X149035500Y-108832900D02*
X149340300Y-108832900D01*
X159525700Y-110001300D02*
X159881300Y-110001300D01*
X153683700Y-110280700D02*
X154801300Y-110280700D01*
X156401500Y-110179100D02*
X156680900Y-110179100D01*
X148857700Y-109010700D02*
X149162500Y-109010700D01*
X150940500Y-109137700D02*
X151143700Y-109137700D01*
X155537900Y-109239300D02*
X155791900Y-109239300D01*
X153175700Y-110229900D02*
X153531300Y-110229900D01*
X159424100Y-109874300D02*
X159754300Y-109874300D01*
X155537900Y-110356900D02*
X156604700Y-110356900D01*
X155537900Y-109544100D02*
X155791900Y-109544100D01*
X159119300Y-109645700D02*
X159373300Y-109645700D01*
X153734500Y-109264700D02*
X154750500Y-109264700D01*
X156757100Y-109213900D02*
X157138100Y-109213900D01*
X155106100Y-110229900D02*
X155360100Y-110229900D01*
X157722300Y-110229900D02*
X158204900Y-110229900D01*
X150788100Y-109620300D02*
X151143700Y-109620300D01*
X149873700Y-109747300D02*
X150356300Y-109747300D01*
X156376100Y-110229900D02*
X156655500Y-110229900D01*
X159119300Y-110001300D02*
X159373300Y-110001300D01*
X155537900Y-109340900D02*
X155791900Y-109340900D01*
X155106100Y-109975900D02*
X155360100Y-109975900D01*
X152362900Y-109366300D02*
X152718500Y-109366300D01*
X149695900Y-109798100D02*
X149721300Y-109798100D01*
X149086300Y-109188500D02*
X150737300Y-109188500D01*
X152439100Y-109213900D02*
X153023300Y-109213900D01*
X150483300Y-109925100D02*
X151143700Y-109925100D01*
X149086300Y-109544100D02*
X149772100Y-109544100D01*
X148832300Y-109188500D02*
X149010100Y-109188500D01*
X157620700Y-109493300D02*
X157950900Y-109493300D01*
X152489900Y-109137700D02*
X152972500Y-109137700D01*
X157595300Y-109899700D02*
X157874700Y-109899700D01*
X159601900Y-109417100D02*
X159957500Y-109417100D01*
X153023300Y-109925100D02*
X153378900Y-109925100D01*
X153353500Y-110585500D02*
X153709100Y-110585500D01*
X152769300Y-109442500D02*
X153124900Y-109442500D01*
X152388300Y-109340900D02*
X153074100Y-109340900D01*
X153582100Y-110102900D02*
X153912300Y-110102900D01*
X149289500Y-108959900D02*
X150965900Y-108959900D01*
X153810700Y-110407700D02*
X154699700Y-110407700D01*
X154572700Y-109417100D02*
X154674300Y-109417100D01*
X149314900Y-108553500D02*
X150991300Y-108553500D01*
X149873700Y-109772700D02*
X150356300Y-109772700D01*
X156503100Y-109899700D02*
X157392100Y-109899700D01*
X150508700Y-109899700D02*
X151143700Y-109899700D01*
X149162500Y-110331500D02*
X149340300Y-110331500D01*
X149416500Y-110077500D02*
X149594300Y-110077500D01*
X149899100Y-109925100D02*
X150305500Y-109925100D01*
X155106100Y-109620300D02*
X155360100Y-109620300D01*
X149086300Y-110560100D02*
X149111700Y-110560100D01*
X150711900Y-109366300D02*
X150915100Y-109366300D01*
X159119300Y-109975900D02*
X159373300Y-109975900D01*
X152616900Y-108858300D02*
X152845500Y-108858300D01*
X157595300Y-109823500D02*
X157874700Y-109823500D01*
X153658300Y-109340900D02*
X154699700Y-109340900D01*
X150508700Y-109620300D02*
X150661100Y-109620300D01*
X154547300Y-109950500D02*
X154801300Y-109950500D01*
X157061900Y-109798100D02*
X157341300Y-109798100D01*
X156604700Y-109594900D02*
X156884100Y-109594900D01*
X151600900Y-110763300D02*
X153074100Y-110763300D01*
X150076900Y-110026700D02*
X150127700Y-110026700D01*
X148832300Y-109417100D02*
X149010100Y-109417100D01*
X149086300Y-109798100D02*
X149518100Y-109798100D01*
X159906700Y-109086900D02*
X160262300Y-109086900D01*
X148832300Y-110102900D02*
X149010100Y-110102900D01*
X149873700Y-109671100D02*
X150330900Y-109671100D01*
X150508700Y-109696500D02*
X150559500Y-109696500D01*
X156782500Y-109112300D02*
X157087300Y-109112300D01*
X159119300Y-110102900D02*
X159373300Y-110102900D01*
X159678100Y-109340900D02*
X160008300Y-109340900D01*
X150508700Y-109569500D02*
X150711900Y-109569500D01*
X148832300Y-110153700D02*
X149010100Y-110153700D01*
X153607500Y-109442500D02*
X153963100Y-109442500D01*
X153556700Y-110001300D02*
X153836100Y-110001300D01*
X156503100Y-109874300D02*
X156782500Y-109874300D01*
X152388300Y-109315500D02*
X153074100Y-109315500D01*
X150508700Y-109721900D02*
X150534100Y-109721900D01*
X154166300Y-109823500D02*
X154801300Y-109823500D01*
X154039300Y-110509300D02*
X154471100Y-110509300D01*
X149695900Y-110128300D02*
X149975300Y-110128300D01*
X150356300Y-109467900D02*
X150457900Y-109467900D01*
X153556700Y-110077500D02*
X153886900Y-110077500D01*
X149010100Y-108858300D02*
X149314900Y-108858300D01*
X153886900Y-110458500D02*
X154623500Y-110458500D01*
X152566100Y-108959900D02*
X152896300Y-108959900D01*
X152693100Y-108705900D02*
X152769300Y-108705900D01*
X159119300Y-109544100D02*
X159373300Y-109544100D01*
X149899100Y-109620300D02*
X150330900Y-109620300D01*
X153302700Y-110509300D02*
X153683700Y-110509300D01*
X156731700Y-109315500D02*
X157163500Y-109315500D01*
X148832300Y-110382300D02*
X148959300Y-110382300D01*
X148933900Y-108934500D02*
X149238700Y-108934500D01*
X155106100Y-109163100D02*
X155360100Y-109163100D01*
X149086300Y-109899700D02*
X149416500Y-109899700D01*
X155537900Y-110153700D02*
X155791900Y-110153700D01*
X159119300Y-109848900D02*
X159373300Y-109848900D01*
X159474900Y-109925100D02*
X159805100Y-109925100D01*
X155106100Y-109798100D02*
X155360100Y-109798100D01*
X156782500Y-109163100D02*
X157112700Y-109163100D01*
X153480500Y-110864900D02*
X153861500Y-110864900D01*
X157747700Y-109315500D02*
X158712900Y-109315500D01*
X157061900Y-109772700D02*
X157341300Y-109772700D01*
X154039300Y-109112300D02*
X154471100Y-109112300D01*
X159728900Y-109290100D02*
X160059100Y-109290100D01*
X150203900Y-109391700D02*
X150534100Y-109391700D01*
X149949900Y-109975900D02*
X150254700Y-109975900D01*
X149086300Y-109417100D02*
X149924500Y-109417100D01*
X149086300Y-110153700D02*
X149187900Y-110153700D01*
X149086300Y-109594900D02*
X149721300Y-109594900D01*
X159754300Y-109239300D02*
X160109900Y-109239300D01*
X156452300Y-110026700D02*
X157442900Y-110026700D01*
X149086300Y-110052100D02*
X149289500Y-110052100D01*
X157290500Y-110407700D02*
X157569900Y-110407700D01*
X154547300Y-110179100D02*
X154801300Y-110179100D01*
X151981900Y-110153700D02*
X152972500Y-110153700D01*
X153531300Y-109747300D02*
X153810700Y-109747300D01*
X155537900Y-109772700D02*
X155791900Y-109772700D01*
X149340300Y-108909100D02*
X151016700Y-108909100D01*
X154547300Y-110052100D02*
X154801300Y-110052100D01*
X149086300Y-109696500D02*
X149619700Y-109696500D01*
X149340300Y-110483900D02*
X151016700Y-110483900D01*
X159830500Y-110356900D02*
X160186100Y-110356900D01*
X148832300Y-109112300D02*
X149060900Y-109112300D01*
X150534100Y-109544100D02*
X150737300Y-109544100D01*
X157595300Y-109620300D02*
X157900100Y-109620300D01*
X149594300Y-110229900D02*
X151143700Y-110229900D01*
X159119300Y-109188500D02*
X159373300Y-109188500D01*
X157696900Y-110179100D02*
X158077900Y-110179100D01*
X153150300Y-110204500D02*
X153531300Y-110204500D01*
X157849300Y-110356900D02*
X158763700Y-110356900D01*
X153074100Y-110026700D02*
X153429700Y-110026700D01*
X150686500Y-109391700D02*
X150889700Y-109391700D01*
X149086300Y-109213900D02*
X150711900Y-109213900D01*
X159119300Y-109467900D02*
X159373300Y-109467900D01*
X157595300Y-109721900D02*
X157874700Y-109721900D01*
X149111700Y-109137700D02*
X150788100Y-109137700D01*
D12*
%TO.C,J1*%
X120750000Y-124340000D02*
X105750000Y-124340000D01*
X105750000Y-108160000D02*
X120750000Y-108160000D01*
X105750000Y-124340000D02*
X105750000Y-108160000D01*
X120750000Y-108160000D02*
X120750000Y-124340000D01*
D10*
%TO.C,C16*%
X173615000Y-119360000D02*
X173615000Y-118760000D01*
X174885000Y-118760000D02*
X174885000Y-119360000D01*
%TO.C,R15*%
X172135000Y-113800000D02*
X172135000Y-113200000D01*
X173405000Y-113200000D02*
X173405000Y-113800000D01*
%TD*%
M02*
