M48
; DRILL file {KiCad 6.0.0} date ven. 14 janv. 2022 21:47:51
; FORMAT={-:-/ absolute / inch / decimal}
; #@! TF.CreationDate,2022-01-14T21:47:51+01:00
; #@! TF.GenerationSoftware,Kicad,Pcbnew,6.0.0
; #@! TF.FileFunction,Plated,1,4,PTH
FMAT,2
INCH
; #@! TA.AperFunction,Plated,PTH,ViaDrill
T1C0.0120
; #@! TA.AperFunction,Plated,PTH,ComponentDrill
T2C0.0354
; #@! TA.AperFunction,Plated,PTH,ComponentDrill
T3C0.0394
; #@! TA.AperFunction,Plated,PTH,ComponentDrill
T4C0.0433
; #@! TA.AperFunction,Plated,PTH,ComponentDrill
T5C0.0630
%
G90
G05
T1
X4.3012Y-4.2126
X4.3012Y-4.3701
X4.3012Y-4.4488
X4.3012Y-4.5276
X4.3012Y-4.6063
X4.3012Y-4.685
X4.3012Y-4.7638
X4.3012Y-4.9213
X4.3504Y-3.2579
X4.3504Y-4.1339
X4.3504Y-5.0098
X4.4291Y-3.2579
X4.4291Y-4.1339
X4.4291Y-5.0098
X4.4665Y-4.939
X4.5079Y-3.2579
X4.5079Y-4.1339
X4.5079Y-5.0098
X4.5866Y-3.2579
X4.5866Y-3.3465
X4.5866Y-3.4252
X4.5866Y-3.5039
X4.5866Y-3.5827
X4.5866Y-3.6614
X4.5866Y-3.7402
X4.5866Y-3.8189
X4.5866Y-3.8976
X4.5866Y-3.9764
X4.5866Y-4.0551
X4.5866Y-4.1339
X4.5866Y-5.0098
X4.6654Y-3.2579
X4.6654Y-4.1339
X4.6654Y-5.0098
X4.6713Y-4.939
X4.7441Y-3.2579
X4.7441Y-4.1339
X4.7441Y-5.0098
X4.811Y-4.9035
X4.8228Y-3.2579
X4.8228Y-4.1339
X4.8228Y-5.0098
X4.8524Y-4.3374
X4.9016Y-3.2579
X4.9016Y-4.1339
X4.9016Y-5.0098
X4.9803Y-3.2579
X4.9803Y-4.1339
X4.9803Y-5.0098
X5.0098Y-4.2815
X5.0098Y-4.872
X5.0591Y-3.2579
X5.0591Y-4.1339
X5.0591Y-5.0098
X5.1378Y-3.2579
X5.1378Y-4.1339
X5.1378Y-5.0098
X5.1575Y-4.2717
X5.1575Y-4.3406
X5.2165Y-3.2579
X5.2165Y-4.1339
X5.2165Y-5.0098
X5.2421Y-4.8228
X5.2559Y-3.563
X5.2559Y-3.6004
X5.2559Y-3.7106
X5.2559Y-3.748
X5.2953Y-3.2579
X5.2953Y-4.1339
X5.2953Y-5.0098
X5.3051Y-4.9173
X5.3307Y-4.25
X5.3307Y-4.3602
X5.3346Y-4.7835
X5.374Y-3.2579
X5.374Y-4.1339
X5.374Y-5.0098
X5.3937Y-3.3799
X5.3937Y-3.4154
X5.3937Y-3.4508
X5.3937Y-4.3917
X5.4094Y-4.8823
X5.4429Y-4.3504
X5.4449Y-3.563
X5.4449Y-3.7106
X5.4528Y-3.2579
X5.4528Y-4.1339
X5.4528Y-5.0098
X5.4587Y-4.9409
X5.4996Y-4.8614
X5.502Y-4.439
X5.5059Y-3.5256
X5.5059Y-3.6728
X5.5118Y-4.5768
X5.5315Y-3.2579
X5.5315Y-4.1339
X5.5315Y-5.0098
X5.5354Y-3.6224
X5.5354Y-3.7701
X5.5413Y-3.3799
X5.5413Y-3.4154
X5.5413Y-3.4508
X5.5417Y-4.25
X5.5571Y-4.8035
X5.561Y-4.9567
X5.5866Y-3.7933
X5.6098Y-3.7701
X5.6102Y-3.2579
X5.6102Y-3.5591
X5.6102Y-4.1339
X5.6102Y-4.4094
X5.6102Y-4.4685
X5.6102Y-5.0098
X5.6106Y-4.6949
X5.6106Y-4.7516
X5.6331Y-3.7933
X5.6382Y-4.6693
X5.6382Y-4.7217
X5.6398Y-4.439
X5.6398Y-4.498
X5.6437Y-4.6063
X5.6496Y-3.3949
X5.6654Y-3.3268
X5.689Y-3.2579
X5.689Y-4.1339
X5.689Y-4.5669
X5.689Y-5.0098
X5.7028Y-3.7205
X5.7283Y-3.4449
X5.7323Y-4.4685
X5.7677Y-3.2579
X5.7677Y-4.1339
X5.7677Y-5.0098
X5.7717Y-4.6161
X5.7972Y-3.3071
X5.8276Y-4.3898
X5.8465Y-3.2579
X5.8465Y-4.1339
X5.8465Y-4.528
X5.8465Y-5.0098
X5.8661Y-4.4685
X5.8858Y-4.1929
X5.8858Y-4.2362
X5.9055Y-4.4291
X5.9252Y-3.2579
X5.9252Y-5.0098
X5.9331Y-4.6752
X5.9331Y-4.7441
X5.9331Y-4.7953
X6.0039Y-3.2579
X6.0039Y-5.0098
X6.0827Y-3.2579
X6.0827Y-5.0098
X6.1614Y-3.2579
X6.1614Y-5.0098
X6.1657Y-4.6161
X6.2047Y-4.4055
X6.2189Y-4.9311
X6.2402Y-3.2579
X6.2402Y-5.0098
X6.2598Y-4.9067
X6.2795Y-4.7961
X6.3043Y-4.5118
X6.3043Y-4.6634
X6.3189Y-3.2579
X6.3189Y-4.9311
X6.3189Y-5.0098
X6.3229Y-4.6342
X6.3484Y-4.5535
X6.3543Y-4.4055
X6.376Y-4.6602
X6.3878Y-4.5728
X6.3976Y-3.2579
X6.3976Y-5.0098
X6.4075Y-4.678
X6.4075Y-4.8071
X6.4189Y-4.9311
X6.4528Y-4.7685
X6.4665Y-4.5079
X6.4764Y-3.2579
X6.4764Y-5.0098
X6.4862Y-4.2815
X6.5059Y-4.3996
X6.5157Y-4.7047
X6.5492Y-4.8291
X6.5543Y-4.6657
X6.5544Y-4.6318
X6.5551Y-3.2579
X6.5551Y-4.4366
X6.5551Y-5.0098
X6.5787Y-4.5077
X6.5886Y-4.6657
X6.5945Y-4.311
X6.6043Y-4.5571
X6.6043Y-4.6161
X6.624Y-4.6657
X6.626Y-4.4291
X6.626Y-4.5075
X6.6319Y-4.7736
X6.6339Y-3.2579
X6.6339Y-4.3406
X6.6339Y-5.0098
X6.6634Y-4.5571
X6.6634Y-4.6161
X6.6732Y-4.5075
X6.6772Y-4.3976
X6.698Y-4.7736
X6.7047Y-4.3701
X6.7126Y-3.2579
X6.7126Y-5.0098
X6.713Y-4.5476
X6.713Y-4.6102
X6.7323Y-4.311
X6.7327Y-4.3976
X6.7579Y-4.9547
X6.7913Y-3.2579
X6.7913Y-5.0098
X6.8012Y-4.311
X6.8012Y-4.6874
X6.802Y-4.4055
X6.8157Y-4.537
X6.8598Y-4.4055
X6.8602Y-4.6181
X6.8701Y-3.2579
X6.8701Y-5.0098
X6.9035Y-4.7173
X6.9197Y-4.4055
X6.9232Y-4.7835
X6.935Y-4.6122
X6.935Y-4.7008
X6.9488Y-3.2579
X6.9488Y-5.0098
X6.9665Y-4.7173
X7.0098Y-4.6181
X7.0276Y-3.2579
X7.0276Y-5.0098
X7.1063Y-3.2579
X7.1063Y-5.0098
X7.185Y-3.2579
X7.185Y-5.0098
X7.2244Y-4.2677
X7.2638Y-3.2579
X7.2638Y-5.0098
X7.3425Y-3.2579
X7.3425Y-5.0098
X7.3917Y-3.3465
X7.3917Y-3.4252
X7.3917Y-3.5039
X7.3917Y-3.5827
X7.3917Y-3.6614
X7.3917Y-3.7402
X7.3917Y-3.8189
X7.3917Y-3.8976
X7.3917Y-3.9764
X7.3917Y-4.0551
X7.3917Y-4.1339
X7.3917Y-4.2126
X7.3917Y-4.4488
X7.3917Y-4.5276
X7.3917Y-4.6063
X7.3917Y-4.685
X7.3917Y-4.7638
X7.3917Y-4.8425
X7.3917Y-4.9213
T2
X4.4236Y-4.4764
X4.4236Y-4.5567
X4.4236Y-4.637
X4.4236Y-4.7173
X4.4937Y-4.4362
X4.4937Y-4.5165
X4.4937Y-4.5969
X4.4937Y-4.6772
X4.6835Y-4.3012
X4.6835Y-4.4012
X4.6835Y-4.7524
X4.6835Y-4.8524
T4
X5.0098Y-3.4106
X5.0098Y-3.5606
X5.0098Y-3.7106
X5.0098Y-3.8606
X5.0098Y-4.0106
T5
X7.1244Y-4.5654
X7.1244Y-4.7654
X7.2244Y-4.6654
X7.3244Y-4.5654
X7.3244Y-4.7654
T3
G00X4.4862Y-4.3173
M15
G01X4.4311Y-4.3173
M16
G05
G00X4.4862Y-4.8362
M15
G01X4.4311Y-4.8362
M16
G05
T0
M30
